M48
; DRILL file {KiCad (5.99.0-12974-ge12f9a194d)} date Friday, October 29, 2021 at 04:06:15 PM
; FORMAT={-:-/ absolute / metric / decimal}
; #@! TF.CreationDate,2021-10-29T16:06:15-04:00
; #@! TF.GenerationSoftware,Kicad,Pcbnew,(5.99.0-12974-ge12f9a194d)
; #@! TF.FileFunction,Plated,1,2,PTH
FMAT,2
METRIC
; #@! TA.AperFunction,Plated,PTH,ViaDrill
T1C0.400
; #@! TA.AperFunction,Plated,PTH,ComponentDrill
T2C1.317
%
G90
G05
T1
X83.82Y-236.982
X87.376Y-234.188
X90.678Y-215.9
X92.202Y-207.518
X98.552Y-212.598
X98.552Y-218.694
T2
X283.56Y-158.6
X287.52Y-158.6
X291.48Y-158.6
X295.44Y-158.6
X299.4Y-158.6
X303.36Y-158.6
X307.32Y-158.6
X311.28Y-158.6
X315.24Y-158.6
X319.2Y-158.6
X323.16Y-158.6
X327.12Y-158.6
X331.08Y-158.6
X335.04Y-158.6
X339.0Y-158.6
X342.96Y-158.6
X346.92Y-158.6
X350.88Y-158.6
X354.84Y-158.6
X358.8Y-158.6
X362.76Y-158.6
X366.72Y-158.6
X370.68Y-158.6
X374.64Y-158.6
X378.6Y-158.6
X382.56Y-158.6
X386.52Y-158.6
X390.48Y-158.6
X394.44Y-158.6
X398.4Y-158.6
T0
M30
