%FSLAX45Y45*%
G04 Gerber Fmt 4.5, Leading zero omitted, Abs format (unit mm)*
G04 Created by KiCad (PCBNEW (5.99.0-12974-ge12f9a194d)) date 2021-10-29 16:06:23*
%MOMM*%
%LPD*%
G01*
G04 APERTURE LIST*
%TA.AperFunction,Profile*%
%ADD10C,0.050000*%
%TD*%
%ADD11C,0.200000*%
G04 APERTURE END LIST*
D10*
X4470000Y-15825000D02*
X25770000Y-15825000D01*
X4170000Y-27825000D02*
X4171232Y-16097839D01*
X45765000Y-28125000D02*
X4470000Y-28125000D01*
X46065000Y-16125000D02*
X46065000Y-27825000D01*
X45765000Y-15825000D02*
X41970000Y-15825000D01*
X10020000Y-22920000D02*
G75*
G03*
X9855000Y-22755000I-165000J0D01*
G01*
X4470000Y-15825000D02*
G75*
G03*
X4171232Y-16097839I0J-300000D01*
G01*
X25770000Y-15375000D02*
X41970000Y-15375000D01*
X25770000Y-15825000D02*
X25770000Y-15375000D01*
X9855000Y-23085000D02*
X9660000Y-23085000D01*
X41970000Y-15375000D02*
X41970000Y-15825000D01*
X9855000Y-23085000D02*
G75*
G03*
X10020000Y-22920000I0J165000D01*
G01*
X45765000Y-28125000D02*
G75*
G03*
X46065000Y-27825000I0J300000D01*
G01*
X4170000Y-27825000D02*
G75*
G03*
X4470000Y-28125000I300000J0D01*
G01*
X46065000Y-16125000D02*
G75*
G03*
X45765000Y-15825000I-300000J0D01*
G01*
X9660000Y-22755000D02*
X9855000Y-22755000D01*
X9660000Y-22755000D02*
G75*
G03*
X9660000Y-23085000I-315000J-165000D01*
G01*
D11*
X4425119Y-28437976D02*
X4425119Y-28237976D01*
X4472738Y-28237976D01*
X4501310Y-28247500D01*
X4520357Y-28266548D01*
X4529881Y-28285595D01*
X4539405Y-28323690D01*
X4539405Y-28352262D01*
X4529881Y-28390357D01*
X4520357Y-28409405D01*
X4501310Y-28428452D01*
X4472738Y-28437976D01*
X4425119Y-28437976D01*
X4625119Y-28437976D02*
X4625119Y-28304643D01*
X4625119Y-28342738D02*
X4634643Y-28323690D01*
X4644167Y-28314167D01*
X4663214Y-28304643D01*
X4682262Y-28304643D01*
X4748929Y-28437976D02*
X4748929Y-28304643D01*
X4748929Y-28237976D02*
X4739405Y-28247500D01*
X4748929Y-28257024D01*
X4758452Y-28247500D01*
X4748929Y-28237976D01*
X4748929Y-28257024D01*
X4872738Y-28437976D02*
X4853690Y-28428452D01*
X4844167Y-28409405D01*
X4844167Y-28237976D01*
X4977500Y-28437976D02*
X4958452Y-28428452D01*
X4948929Y-28409405D01*
X4948929Y-28237976D01*
X5206071Y-28437976D02*
X5206071Y-28237976D01*
X5272738Y-28380833D01*
X5339405Y-28237976D01*
X5339405Y-28437976D01*
X5520357Y-28437976D02*
X5520357Y-28333214D01*
X5510833Y-28314167D01*
X5491786Y-28304643D01*
X5453690Y-28304643D01*
X5434643Y-28314167D01*
X5520357Y-28428452D02*
X5501310Y-28437976D01*
X5453690Y-28437976D01*
X5434643Y-28428452D01*
X5425119Y-28409405D01*
X5425119Y-28390357D01*
X5434643Y-28371309D01*
X5453690Y-28361786D01*
X5501310Y-28361786D01*
X5520357Y-28352262D01*
X5615595Y-28304643D02*
X5615595Y-28504643D01*
X5615595Y-28314167D02*
X5634643Y-28304643D01*
X5672738Y-28304643D01*
X5691786Y-28314167D01*
X5701309Y-28323690D01*
X5710833Y-28342738D01*
X5710833Y-28399881D01*
X5701309Y-28418928D01*
X5691786Y-28428452D01*
X5672738Y-28437976D01*
X5634643Y-28437976D01*
X5615595Y-28428452D01*
X5796548Y-28418928D02*
X5806071Y-28428452D01*
X5796548Y-28437976D01*
X5787024Y-28428452D01*
X5796548Y-28418928D01*
X5796548Y-28437976D01*
X5796548Y-28314167D02*
X5806071Y-28323690D01*
X5796548Y-28333214D01*
X5787024Y-28323690D01*
X5796548Y-28314167D01*
X5796548Y-28333214D01*
M02*
