%TF.GenerationSoftware,KiCad,Pcbnew,(5.99.0-12974-ge12f9a194d)*%
%TF.CreationDate,2021-10-29T16:05:09-04:00*%
%TF.ProjectId,FXTal_no_holes,46585461-6c5f-46e6-9f5f-686f6c65732e,rev?*%
%TF.SameCoordinates,PXe1237f8PYe7db780*%
%TF.FileFunction,AssemblyDrawing,Top*%
%FSLAX46Y46*%
G04 Gerber Fmt 4.6, Leading zero omitted, Abs format (unit mm)*
G04 Created by KiCad (PCBNEW (5.99.0-12974-ge12f9a194d)) date 2021-10-29 16:05:09*
%MOMM*%
%LPD*%
G01*
G04 APERTURE LIST*
%TA.AperFunction,Profile*%
%ADD10C,0.050000*%
%TD*%
%ADD11C,0.300000*%
%ADD12C,0.150000*%
%ADD13C,0.100000*%
G04 APERTURE END LIST*
D10*
X-191375000Y84870000D02*
X21625000Y84870000D01*
X-194375000Y-35130000D02*
X-194362680Y82141607D01*
X221575000Y-38130000D02*
X-191375000Y-38130000D01*
X224575000Y81870000D02*
X224575000Y-35130000D01*
X221575000Y84870000D02*
X183625000Y84870000D01*
X-135875000Y13920000D02*
G75*
G03*
X-137524996Y15570000I-1649999J1D01*
G01*
X-191375000Y84870000D02*
G75*
G03*
X-194362680Y82141607I1J-3000002D01*
G01*
X21625000Y89370000D02*
X183625000Y89370000D01*
X21625000Y84870000D02*
X21625000Y89370000D01*
X-137525000Y12270004D02*
X-139475001Y12270000D01*
X183625000Y89370000D02*
X183625000Y84870000D01*
X-137525000Y12270004D02*
G75*
G03*
X-135875000Y13920000I4J1649996D01*
G01*
X221575000Y-38130000D02*
G75*
G03*
X224575000Y-35130000I-1J3000001D01*
G01*
X-194375000Y-35130000D02*
G75*
G03*
X-191375000Y-38130000I3000001J1D01*
G01*
X224575000Y81870000D02*
G75*
G03*
X221575000Y84870000I-3000001J-1D01*
G01*
X-139475001Y15570000D02*
X-137524996Y15570000D01*
X-139475001Y15570000D02*
G75*
G03*
X-139475001Y12270000I-3149999J-1650000D01*
G01*
D11*
X-199028572Y112446129D02*
X-199875239Y112446129D01*
X-199875239Y111115653D02*
X-199875239Y113655653D01*
X-198665715Y113655653D01*
X-197335239Y111115653D02*
X-197577143Y111236605D01*
X-197698096Y111357558D01*
X-197819048Y111599462D01*
X-197819048Y112325177D01*
X-197698096Y112567081D01*
X-197577143Y112688034D01*
X-197335239Y112808986D01*
X-196972381Y112808986D01*
X-196730477Y112688034D01*
X-196609524Y112567081D01*
X-196488572Y112325177D01*
X-196488572Y111599462D01*
X-196609524Y111357558D01*
X-196730477Y111236605D01*
X-196972381Y111115653D01*
X-197335239Y111115653D01*
X-195400000Y111115653D02*
X-195400000Y112808986D01*
X-195400000Y112325177D02*
X-195279048Y112567081D01*
X-195158096Y112688034D01*
X-194916191Y112808986D01*
X-194674286Y112808986D01*
X-191892381Y111115653D02*
X-191892381Y113655653D01*
X-191045715Y111841367D01*
X-190199048Y113655653D01*
X-190199048Y111115653D01*
X-187900953Y111115653D02*
X-187900953Y112446129D01*
X-188021905Y112688034D01*
X-188263810Y112808986D01*
X-188747620Y112808986D01*
X-188989524Y112688034D01*
X-187900953Y111236605D02*
X-188142858Y111115653D01*
X-188747620Y111115653D01*
X-188989524Y111236605D01*
X-189110477Y111478510D01*
X-189110477Y111720415D01*
X-188989524Y111962320D01*
X-188747620Y112083272D01*
X-188142858Y112083272D01*
X-187900953Y112204224D01*
X-186691429Y112808986D02*
X-186691429Y111115653D01*
X-186691429Y112567081D02*
X-186570477Y112688034D01*
X-186328572Y112808986D01*
X-185965715Y112808986D01*
X-185723810Y112688034D01*
X-185602858Y112446129D01*
X-185602858Y111115653D01*
X-183304762Y112808986D02*
X-183304762Y111115653D01*
X-184393334Y112808986D02*
X-184393334Y111478510D01*
X-184272381Y111236605D01*
X-184030477Y111115653D01*
X-183667620Y111115653D01*
X-183425715Y111236605D01*
X-183304762Y111357558D01*
X-182458096Y112808986D02*
X-181490477Y112808986D01*
X-182095239Y111115653D02*
X-182095239Y113292796D01*
X-181974286Y113534700D01*
X-181732381Y113655653D01*
X-181490477Y113655653D01*
X-179555239Y111115653D02*
X-179555239Y112446129D01*
X-179676191Y112688034D01*
X-179918096Y112808986D01*
X-180401905Y112808986D01*
X-180643810Y112688034D01*
X-179555239Y111236605D02*
X-179797143Y111115653D01*
X-180401905Y111115653D01*
X-180643810Y111236605D01*
X-180764762Y111478510D01*
X-180764762Y111720415D01*
X-180643810Y111962320D01*
X-180401905Y112083272D01*
X-179797143Y112083272D01*
X-179555239Y112204224D01*
X-177257143Y111236605D02*
X-177499048Y111115653D01*
X-177982858Y111115653D01*
X-178224762Y111236605D01*
X-178345715Y111357558D01*
X-178466667Y111599462D01*
X-178466667Y112325177D01*
X-178345715Y112567081D01*
X-178224762Y112688034D01*
X-177982858Y112808986D01*
X-177499048Y112808986D01*
X-177257143Y112688034D01*
X-176531429Y112808986D02*
X-175563810Y112808986D01*
X-176168572Y113655653D02*
X-176168572Y111478510D01*
X-176047620Y111236605D01*
X-175805715Y111115653D01*
X-175563810Y111115653D01*
X-173628572Y112808986D02*
X-173628572Y111115653D01*
X-174717143Y112808986D02*
X-174717143Y111478510D01*
X-174596191Y111236605D01*
X-174354286Y111115653D01*
X-173991429Y111115653D01*
X-173749524Y111236605D01*
X-173628572Y111357558D01*
X-172419048Y111115653D02*
X-172419048Y112808986D01*
X-172419048Y112325177D02*
X-172298096Y112567081D01*
X-172177143Y112688034D01*
X-171935239Y112808986D01*
X-171693334Y112808986D01*
X-169879048Y111236605D02*
X-170120953Y111115653D01*
X-170604762Y111115653D01*
X-170846667Y111236605D01*
X-170967620Y111478510D01*
X-170967620Y112446129D01*
X-170846667Y112688034D01*
X-170604762Y112808986D01*
X-170120953Y112808986D01*
X-169879048Y112688034D01*
X-169758096Y112446129D01*
X-169758096Y112204224D01*
X-170967620Y111962320D01*
X-168669524Y111115653D02*
X-168669524Y112808986D01*
X-168669524Y112325177D02*
X-168548572Y112567081D01*
X-168427620Y112688034D01*
X-168185715Y112808986D01*
X-167943810Y112808986D01*
X-167097143Y111357558D02*
X-166976191Y111236605D01*
X-167097143Y111115653D01*
X-167218096Y111236605D01*
X-167097143Y111357558D01*
X-167097143Y111115653D01*
X-167097143Y112688034D02*
X-166976191Y112567081D01*
X-167097143Y112446129D01*
X-167218096Y112567081D01*
X-167097143Y112688034D01*
X-167097143Y112446129D01*
X-199875239Y107026253D02*
X-199875239Y109566253D01*
X-199028572Y108719586D02*
X-198060953Y108719586D01*
X-198665715Y109566253D02*
X-198665715Y107389110D01*
X-198544762Y107147205D01*
X-198302858Y107026253D01*
X-198060953Y107026253D01*
X-195279048Y107026253D02*
X-195279048Y108719586D01*
X-195279048Y109566253D02*
X-195400000Y109445300D01*
X-195279048Y109324348D01*
X-195158096Y109445300D01*
X-195279048Y109566253D01*
X-195279048Y109324348D01*
X-194190477Y107147205D02*
X-193948572Y107026253D01*
X-193464762Y107026253D01*
X-193222858Y107147205D01*
X-193101905Y107389110D01*
X-193101905Y107510062D01*
X-193222858Y107751967D01*
X-193464762Y107872920D01*
X-193827620Y107872920D01*
X-194069524Y107993872D01*
X-194190477Y108235777D01*
X-194190477Y108356729D01*
X-194069524Y108598634D01*
X-193827620Y108719586D01*
X-193464762Y108719586D01*
X-193222858Y108598634D01*
X-189715239Y107026253D02*
X-189957143Y107147205D01*
X-190078096Y107268158D01*
X-190199048Y107510062D01*
X-190199048Y108235777D01*
X-190078096Y108477681D01*
X-189957143Y108598634D01*
X-189715239Y108719586D01*
X-189352381Y108719586D01*
X-189110477Y108598634D01*
X-188989524Y108477681D01*
X-188868572Y108235777D01*
X-188868572Y107510062D01*
X-188989524Y107268158D01*
X-189110477Y107147205D01*
X-189352381Y107026253D01*
X-189715239Y107026253D01*
X-187780000Y107026253D02*
X-187780000Y109566253D01*
X-187538096Y107993872D02*
X-186812381Y107026253D01*
X-186812381Y108719586D02*
X-187780000Y107751967D01*
X-184635239Y107026253D02*
X-184635239Y108356729D01*
X-184756191Y108598634D01*
X-184998096Y108719586D01*
X-185481905Y108719586D01*
X-185723810Y108598634D01*
X-184635239Y107147205D02*
X-184877143Y107026253D01*
X-185481905Y107026253D01*
X-185723810Y107147205D01*
X-185844762Y107389110D01*
X-185844762Y107631015D01*
X-185723810Y107872920D01*
X-185481905Y107993872D01*
X-184877143Y107993872D01*
X-184635239Y108114824D01*
X-183667620Y108719586D02*
X-183062858Y107026253D01*
X-182458096Y108719586D02*
X-183062858Y107026253D01*
X-183304762Y106421491D01*
X-183425715Y106300539D01*
X-183667620Y106179586D01*
X-179555239Y107026253D02*
X-179555239Y108719586D01*
X-179555239Y109566253D02*
X-179676191Y109445300D01*
X-179555239Y109324348D01*
X-179434286Y109445300D01*
X-179555239Y109566253D01*
X-179555239Y109324348D01*
X-178708572Y108719586D02*
X-177740953Y108719586D01*
X-178345715Y107026253D02*
X-178345715Y109203396D01*
X-178224762Y109445300D01*
X-177982858Y109566253D01*
X-177740953Y109566253D01*
X-175321905Y108719586D02*
X-174354286Y108719586D01*
X-174959048Y109566253D02*
X-174959048Y107389110D01*
X-174838096Y107147205D01*
X-174596191Y107026253D01*
X-174354286Y107026253D01*
X-173507620Y107026253D02*
X-173507620Y109566253D01*
X-172419048Y107026253D02*
X-172419048Y108356729D01*
X-172540000Y108598634D01*
X-172781905Y108719586D01*
X-173144762Y108719586D01*
X-173386667Y108598634D01*
X-173507620Y108477681D01*
X-170241905Y107147205D02*
X-170483810Y107026253D01*
X-170967620Y107026253D01*
X-171209524Y107147205D01*
X-171330477Y107389110D01*
X-171330477Y108356729D01*
X-171209524Y108598634D01*
X-170967620Y108719586D01*
X-170483810Y108719586D01*
X-170241905Y108598634D01*
X-170120953Y108356729D01*
X-170120953Y108114824D01*
X-171330477Y107872920D01*
X-167097143Y107026253D02*
X-167097143Y109566253D01*
X-167097143Y108598634D02*
X-166855239Y108719586D01*
X-166371429Y108719586D01*
X-166129524Y108598634D01*
X-166008572Y108477681D01*
X-165887620Y108235777D01*
X-165887620Y107510062D01*
X-166008572Y107268158D01*
X-166129524Y107147205D01*
X-166371429Y107026253D01*
X-166855239Y107026253D01*
X-167097143Y107147205D01*
X-164436191Y107026253D02*
X-164678096Y107147205D01*
X-164799048Y107268158D01*
X-164920000Y107510062D01*
X-164920000Y108235777D01*
X-164799048Y108477681D01*
X-164678096Y108598634D01*
X-164436191Y108719586D01*
X-164073334Y108719586D01*
X-163831429Y108598634D01*
X-163710477Y108477681D01*
X-163589524Y108235777D01*
X-163589524Y107510062D01*
X-163710477Y107268158D01*
X-163831429Y107147205D01*
X-164073334Y107026253D01*
X-164436191Y107026253D01*
X-161412381Y107026253D02*
X-161412381Y108356729D01*
X-161533334Y108598634D01*
X-161775239Y108719586D01*
X-162259048Y108719586D01*
X-162500953Y108598634D01*
X-161412381Y107147205D02*
X-161654286Y107026253D01*
X-162259048Y107026253D01*
X-162500953Y107147205D01*
X-162621905Y107389110D01*
X-162621905Y107631015D01*
X-162500953Y107872920D01*
X-162259048Y107993872D01*
X-161654286Y107993872D01*
X-161412381Y108114824D01*
X-160202858Y107026253D02*
X-160202858Y108719586D01*
X-160202858Y108235777D02*
X-160081905Y108477681D01*
X-159960953Y108598634D01*
X-159719048Y108719586D01*
X-159477143Y108719586D01*
X-157541905Y107026253D02*
X-157541905Y109566253D01*
X-157541905Y107147205D02*
X-157783810Y107026253D01*
X-158267620Y107026253D01*
X-158509524Y107147205D01*
X-158630477Y107268158D01*
X-158751429Y107510062D01*
X-158751429Y108235777D01*
X-158630477Y108477681D01*
X-158509524Y108598634D01*
X-158267620Y108719586D01*
X-157783810Y108719586D01*
X-157541905Y108598634D01*
X-154639048Y108719586D02*
X-154155239Y107026253D01*
X-153671429Y108235777D01*
X-153187620Y107026253D01*
X-152703810Y108719586D01*
X-151736191Y107026253D02*
X-151736191Y108719586D01*
X-151736191Y109566253D02*
X-151857143Y109445300D01*
X-151736191Y109324348D01*
X-151615239Y109445300D01*
X-151736191Y109566253D01*
X-151736191Y109324348D01*
X-150163810Y107026253D02*
X-150405715Y107147205D01*
X-150526667Y107389110D01*
X-150526667Y109566253D01*
X-148833334Y107026253D02*
X-149075239Y107147205D01*
X-149196191Y107389110D01*
X-149196191Y109566253D01*
X-146172381Y108719586D02*
X-145688572Y107026253D01*
X-145204762Y108235777D01*
X-144720953Y107026253D01*
X-144237143Y108719586D01*
X-142180953Y107026253D02*
X-142180953Y108356729D01*
X-142301905Y108598634D01*
X-142543810Y108719586D01*
X-143027620Y108719586D01*
X-143269524Y108598634D01*
X-142180953Y107147205D02*
X-142422858Y107026253D01*
X-143027620Y107026253D01*
X-143269524Y107147205D01*
X-143390477Y107389110D01*
X-143390477Y107631015D01*
X-143269524Y107872920D01*
X-143027620Y107993872D01*
X-142422858Y107993872D01*
X-142180953Y108114824D01*
X-140971429Y107026253D02*
X-140971429Y108719586D01*
X-140971429Y108235777D02*
X-140850477Y108477681D01*
X-140729524Y108598634D01*
X-140487620Y108719586D01*
X-140245715Y108719586D01*
X-139399048Y108719586D02*
X-139399048Y106179586D01*
X-139399048Y108598634D02*
X-139157143Y108719586D01*
X-138673334Y108719586D01*
X-138431429Y108598634D01*
X-138310477Y108477681D01*
X-138189524Y108235777D01*
X-138189524Y107510062D01*
X-138310477Y107268158D01*
X-138431429Y107147205D01*
X-138673334Y107026253D01*
X-139157143Y107026253D01*
X-139399048Y107147205D01*
X-137100953Y107268158D02*
X-136980000Y107147205D01*
X-137100953Y107026253D01*
X-137221905Y107147205D01*
X-137100953Y107268158D01*
X-137100953Y107026253D01*
X-132383810Y109566253D02*
X-130932381Y109566253D01*
X-131658096Y107026253D02*
X-131658096Y109566253D01*
X-130085715Y107026253D02*
X-130085715Y109566253D01*
X-128997143Y107026253D02*
X-128997143Y108356729D01*
X-129118096Y108598634D01*
X-129360000Y108719586D01*
X-129722858Y108719586D01*
X-129964762Y108598634D01*
X-130085715Y108477681D01*
X-126820000Y107147205D02*
X-127061905Y107026253D01*
X-127545715Y107026253D01*
X-127787620Y107147205D01*
X-127908572Y107389110D01*
X-127908572Y108356729D01*
X-127787620Y108598634D01*
X-127545715Y108719586D01*
X-127061905Y108719586D01*
X-126820000Y108598634D01*
X-126699048Y108356729D01*
X-126699048Y108114824D01*
X-127908572Y107872920D01*
X-123675239Y107026253D02*
X-123675239Y109566253D01*
X-123675239Y108598634D02*
X-123433334Y108719586D01*
X-122949524Y108719586D01*
X-122707620Y108598634D01*
X-122586667Y108477681D01*
X-122465715Y108235777D01*
X-122465715Y107510062D01*
X-122586667Y107268158D01*
X-122707620Y107147205D01*
X-122949524Y107026253D01*
X-123433334Y107026253D01*
X-123675239Y107147205D01*
X-121014286Y107026253D02*
X-121256191Y107147205D01*
X-121377143Y107268158D01*
X-121498096Y107510062D01*
X-121498096Y108235777D01*
X-121377143Y108477681D01*
X-121256191Y108598634D01*
X-121014286Y108719586D01*
X-120651429Y108719586D01*
X-120409524Y108598634D01*
X-120288572Y108477681D01*
X-120167620Y108235777D01*
X-120167620Y107510062D01*
X-120288572Y107268158D01*
X-120409524Y107147205D01*
X-120651429Y107026253D01*
X-121014286Y107026253D01*
X-117990477Y107026253D02*
X-117990477Y108356729D01*
X-118111429Y108598634D01*
X-118353334Y108719586D01*
X-118837143Y108719586D01*
X-119079048Y108598634D01*
X-117990477Y107147205D02*
X-118232381Y107026253D01*
X-118837143Y107026253D01*
X-119079048Y107147205D01*
X-119200000Y107389110D01*
X-119200000Y107631015D01*
X-119079048Y107872920D01*
X-118837143Y107993872D01*
X-118232381Y107993872D01*
X-117990477Y108114824D01*
X-116780953Y107026253D02*
X-116780953Y108719586D01*
X-116780953Y108235777D02*
X-116660000Y108477681D01*
X-116539048Y108598634D01*
X-116297143Y108719586D01*
X-116055239Y108719586D01*
X-114120000Y107026253D02*
X-114120000Y109566253D01*
X-114120000Y107147205D02*
X-114361905Y107026253D01*
X-114845715Y107026253D01*
X-115087620Y107147205D01*
X-115208572Y107268158D01*
X-115329524Y107510062D01*
X-115329524Y108235777D01*
X-115208572Y108477681D01*
X-115087620Y108598634D01*
X-114845715Y108719586D01*
X-114361905Y108719586D01*
X-114120000Y108598634D01*
X-111217143Y108719586D02*
X-110733334Y107026253D01*
X-110249524Y108235777D01*
X-109765715Y107026253D01*
X-109281905Y108719586D01*
X-108314286Y107026253D02*
X-108314286Y108719586D01*
X-108314286Y109566253D02*
X-108435239Y109445300D01*
X-108314286Y109324348D01*
X-108193334Y109445300D01*
X-108314286Y109566253D01*
X-108314286Y109324348D01*
X-106741905Y107026253D02*
X-106983810Y107147205D01*
X-107104762Y107389110D01*
X-107104762Y109566253D01*
X-105411429Y107026253D02*
X-105653334Y107147205D01*
X-105774286Y107389110D01*
X-105774286Y109566253D01*
X-102508572Y107026253D02*
X-102508572Y109566253D01*
X-102508572Y108598634D02*
X-102266667Y108719586D01*
X-101782858Y108719586D01*
X-101540953Y108598634D01*
X-101420000Y108477681D01*
X-101299048Y108235777D01*
X-101299048Y107510062D01*
X-101420000Y107268158D01*
X-101540953Y107147205D01*
X-101782858Y107026253D01*
X-102266667Y107026253D01*
X-102508572Y107147205D01*
X-99242858Y107147205D02*
X-99484762Y107026253D01*
X-99968572Y107026253D01*
X-100210477Y107147205D01*
X-100331429Y107389110D01*
X-100331429Y108356729D01*
X-100210477Y108598634D01*
X-99968572Y108719586D01*
X-99484762Y108719586D01*
X-99242858Y108598634D01*
X-99121905Y108356729D01*
X-99121905Y108114824D01*
X-100331429Y107872920D01*
X-95009524Y107147205D02*
X-95251429Y107026253D01*
X-95735239Y107026253D01*
X-95977143Y107147205D01*
X-96098096Y107268158D01*
X-96219048Y107510062D01*
X-96219048Y108235777D01*
X-96098096Y108477681D01*
X-95977143Y108598634D01*
X-95735239Y108719586D01*
X-95251429Y108719586D01*
X-95009524Y108598634D01*
X-92832381Y108719586D02*
X-92832381Y107026253D01*
X-93920953Y108719586D02*
X-93920953Y107389110D01*
X-93800000Y107147205D01*
X-93558096Y107026253D01*
X-93195239Y107026253D01*
X-92953334Y107147205D01*
X-92832381Y107268158D01*
X-91622858Y107026253D02*
X-91622858Y108719586D01*
X-91622858Y108235777D02*
X-91501905Y108477681D01*
X-91380953Y108598634D01*
X-91139048Y108719586D01*
X-90897143Y108719586D01*
X-90292381Y108719586D02*
X-89687620Y107026253D01*
X-89082858Y108719586D01*
X-87147620Y107147205D02*
X-87389524Y107026253D01*
X-87873334Y107026253D01*
X-88115239Y107147205D01*
X-88236191Y107389110D01*
X-88236191Y108356729D01*
X-88115239Y108598634D01*
X-87873334Y108719586D01*
X-87389524Y108719586D01*
X-87147620Y108598634D01*
X-87026667Y108356729D01*
X-87026667Y108114824D01*
X-88236191Y107872920D01*
X-84849524Y107026253D02*
X-84849524Y109566253D01*
X-84849524Y107147205D02*
X-85091429Y107026253D01*
X-85575239Y107026253D01*
X-85817143Y107147205D01*
X-85938096Y107268158D01*
X-86059048Y107510062D01*
X-86059048Y108235777D01*
X-85938096Y108477681D01*
X-85817143Y108598634D01*
X-85575239Y108719586D01*
X-85091429Y108719586D01*
X-84849524Y108598634D01*
X-82067620Y108719586D02*
X-81100001Y108719586D01*
X-81704762Y109566253D02*
X-81704762Y107389110D01*
X-81583810Y107147205D01*
X-81341905Y107026253D01*
X-81100001Y107026253D01*
X-79890477Y107026253D02*
X-80132381Y107147205D01*
X-80253334Y107268158D01*
X-80374286Y107510062D01*
X-80374286Y108235777D01*
X-80253334Y108477681D01*
X-80132381Y108598634D01*
X-79890477Y108719586D01*
X-79527620Y108719586D01*
X-79285715Y108598634D01*
X-79164762Y108477681D01*
X-79043810Y108235777D01*
X-79043810Y107510062D01*
X-79164762Y107268158D01*
X-79285715Y107147205D01*
X-79527620Y107026253D01*
X-79890477Y107026253D01*
X-76140953Y107147205D02*
X-75899048Y107026253D01*
X-75415239Y107026253D01*
X-75173334Y107147205D01*
X-75052381Y107389110D01*
X-75052381Y107510062D01*
X-75173334Y107751967D01*
X-75415239Y107872920D01*
X-75778096Y107872920D01*
X-76020001Y107993872D01*
X-76140953Y108235777D01*
X-76140953Y108356729D01*
X-76020001Y108598634D01*
X-75778096Y108719586D01*
X-75415239Y108719586D01*
X-75173334Y108598634D01*
X-73963810Y107026253D02*
X-73963810Y109566253D01*
X-72875239Y107026253D02*
X-72875239Y108356729D01*
X-72996191Y108598634D01*
X-73238096Y108719586D01*
X-73600953Y108719586D01*
X-73842858Y108598634D01*
X-73963810Y108477681D01*
X-70577143Y107026253D02*
X-70577143Y108356729D01*
X-70698096Y108598634D01*
X-70940001Y108719586D01*
X-71423810Y108719586D01*
X-71665715Y108598634D01*
X-70577143Y107147205D02*
X-70819048Y107026253D01*
X-71423810Y107026253D01*
X-71665715Y107147205D01*
X-71786667Y107389110D01*
X-71786667Y107631015D01*
X-71665715Y107872920D01*
X-71423810Y107993872D01*
X-70819048Y107993872D01*
X-70577143Y108114824D01*
X-69367620Y108719586D02*
X-69367620Y106179586D01*
X-69367620Y108598634D02*
X-69125715Y108719586D01*
X-68641905Y108719586D01*
X-68400001Y108598634D01*
X-68279048Y108477681D01*
X-68158096Y108235777D01*
X-68158096Y107510062D01*
X-68279048Y107268158D01*
X-68400001Y107147205D01*
X-68641905Y107026253D01*
X-69125715Y107026253D01*
X-69367620Y107147205D01*
X-66101905Y107147205D02*
X-66343810Y107026253D01*
X-66827620Y107026253D01*
X-67069524Y107147205D01*
X-67190477Y107389110D01*
X-67190477Y108356729D01*
X-67069524Y108598634D01*
X-66827620Y108719586D01*
X-66343810Y108719586D01*
X-66101905Y108598634D01*
X-65980953Y108356729D01*
X-65980953Y108114824D01*
X-67190477Y107872920D01*
X-62957143Y107026253D02*
X-62957143Y109566253D01*
X-62957143Y108598634D02*
X-62715239Y108719586D01*
X-62231429Y108719586D01*
X-61989524Y108598634D01*
X-61868572Y108477681D01*
X-61747620Y108235777D01*
X-61747620Y107510062D01*
X-61868572Y107268158D01*
X-61989524Y107147205D01*
X-62231429Y107026253D01*
X-62715239Y107026253D01*
X-62957143Y107147205D01*
X-60900953Y108719586D02*
X-60296191Y107026253D01*
X-59691429Y108719586D02*
X-60296191Y107026253D01*
X-60538096Y106421491D01*
X-60659048Y106300539D01*
X-60900953Y106179586D01*
X-57151429Y108719586D02*
X-56183810Y108719586D01*
X-56788572Y109566253D02*
X-56788572Y107389110D01*
X-56667620Y107147205D01*
X-56425715Y107026253D01*
X-56183810Y107026253D01*
X-55337143Y107026253D02*
X-55337143Y109566253D01*
X-54248572Y107026253D02*
X-54248572Y108356729D01*
X-54369524Y108598634D01*
X-54611429Y108719586D01*
X-54974286Y108719586D01*
X-55216191Y108598634D01*
X-55337143Y108477681D01*
X-52071429Y107147205D02*
X-52313334Y107026253D01*
X-52797143Y107026253D01*
X-53039048Y107147205D01*
X-53160001Y107389110D01*
X-53160001Y108356729D01*
X-53039048Y108598634D01*
X-52797143Y108719586D01*
X-52313334Y108719586D01*
X-52071429Y108598634D01*
X-51950477Y108356729D01*
X-51950477Y108114824D01*
X-53160001Y107872920D01*
X-47838096Y107147205D02*
X-48080001Y107026253D01*
X-48563810Y107026253D01*
X-48805715Y107147205D01*
X-48926667Y107268158D01*
X-49047620Y107510062D01*
X-49047620Y108235777D01*
X-48926667Y108477681D01*
X-48805715Y108598634D01*
X-48563810Y108719586D01*
X-48080001Y108719586D01*
X-47838096Y108598634D01*
X-45660953Y108719586D02*
X-45660953Y107026253D01*
X-46749524Y108719586D02*
X-46749524Y107389110D01*
X-46628572Y107147205D01*
X-46386667Y107026253D01*
X-46023810Y107026253D01*
X-45781905Y107147205D01*
X-45660953Y107268158D01*
X-44572381Y107147205D02*
X-44330477Y107026253D01*
X-43846667Y107026253D01*
X-43604762Y107147205D01*
X-43483810Y107389110D01*
X-43483810Y107510062D01*
X-43604762Y107751967D01*
X-43846667Y107872920D01*
X-44209524Y107872920D01*
X-44451429Y107993872D01*
X-44572381Y108235777D01*
X-44572381Y108356729D01*
X-44451429Y108598634D01*
X-44209524Y108719586D01*
X-43846667Y108719586D01*
X-43604762Y108598634D01*
X-42758096Y108719586D02*
X-41790477Y108719586D01*
X-42395239Y109566253D02*
X-42395239Y107389110D01*
X-42274286Y107147205D01*
X-42032381Y107026253D01*
X-41790477Y107026253D01*
X-40580953Y107026253D02*
X-40822858Y107147205D01*
X-40943810Y107268158D01*
X-41064762Y107510062D01*
X-41064762Y108235777D01*
X-40943810Y108477681D01*
X-40822858Y108598634D01*
X-40580953Y108719586D01*
X-40218096Y108719586D01*
X-39976191Y108598634D01*
X-39855239Y108477681D01*
X-39734286Y108235777D01*
X-39734286Y107510062D01*
X-39855239Y107268158D01*
X-39976191Y107147205D01*
X-40218096Y107026253D01*
X-40580953Y107026253D01*
X-38645715Y107026253D02*
X-38645715Y108719586D01*
X-38645715Y108477681D02*
X-38524762Y108598634D01*
X-38282858Y108719586D01*
X-37920001Y108719586D01*
X-37678096Y108598634D01*
X-37557143Y108356729D01*
X-37557143Y107026253D01*
X-37557143Y108356729D02*
X-37436191Y108598634D01*
X-37194286Y108719586D01*
X-36831429Y108719586D01*
X-36589524Y108598634D01*
X-36468572Y108356729D01*
X-36468572Y107026253D01*
X-34291429Y107147205D02*
X-34533334Y107026253D01*
X-35017143Y107026253D01*
X-35259048Y107147205D01*
X-35380001Y107389110D01*
X-35380001Y108356729D01*
X-35259048Y108598634D01*
X-35017143Y108719586D01*
X-34533334Y108719586D01*
X-34291429Y108598634D01*
X-34170477Y108356729D01*
X-34170477Y108114824D01*
X-35380001Y107872920D01*
X-33081905Y107026253D02*
X-33081905Y108719586D01*
X-33081905Y108235777D02*
X-32960953Y108477681D01*
X-32840001Y108598634D01*
X-32598096Y108719586D01*
X-32356191Y108719586D01*
X-28485715Y107026253D02*
X-28485715Y108356729D01*
X-28606667Y108598634D01*
X-28848572Y108719586D01*
X-29332381Y108719586D01*
X-29574286Y108598634D01*
X-28485715Y107147205D02*
X-28727620Y107026253D01*
X-29332381Y107026253D01*
X-29574286Y107147205D01*
X-29695239Y107389110D01*
X-29695239Y107631015D01*
X-29574286Y107872920D01*
X-29332381Y107993872D01*
X-28727620Y107993872D01*
X-28485715Y108114824D01*
X-27276191Y108719586D02*
X-27276191Y107026253D01*
X-27276191Y108477681D02*
X-27155239Y108598634D01*
X-26913334Y108719586D01*
X-26550477Y108719586D01*
X-26308572Y108598634D01*
X-26187620Y108356729D01*
X-26187620Y107026253D01*
X-23889524Y107026253D02*
X-23889524Y109566253D01*
X-23889524Y107147205D02*
X-24131429Y107026253D01*
X-24615239Y107026253D01*
X-24857143Y107147205D01*
X-24978096Y107268158D01*
X-25099048Y107510062D01*
X-25099048Y108235777D01*
X-24978096Y108477681D01*
X-24857143Y108598634D01*
X-24615239Y108719586D01*
X-24131429Y108719586D01*
X-23889524Y108598634D01*
X-19656191Y107026253D02*
X-19656191Y108356729D01*
X-19777143Y108598634D01*
X-20019048Y108719586D01*
X-20502858Y108719586D01*
X-20744762Y108598634D01*
X-19656191Y107147205D02*
X-19898096Y107026253D01*
X-20502858Y107026253D01*
X-20744762Y107147205D01*
X-20865715Y107389110D01*
X-20865715Y107631015D01*
X-20744762Y107872920D01*
X-20502858Y107993872D01*
X-19898096Y107993872D01*
X-19656191Y108114824D01*
X-18446667Y108719586D02*
X-18446667Y107026253D01*
X-18446667Y108477681D02*
X-18325715Y108598634D01*
X-18083810Y108719586D01*
X-17720953Y108719586D01*
X-17479048Y108598634D01*
X-17358096Y108356729D01*
X-17358096Y107026253D01*
X-16390477Y108719586D02*
X-15785715Y107026253D01*
X-15180953Y108719586D02*
X-15785715Y107026253D01*
X-16027620Y106421491D01*
X-16148572Y106300539D01*
X-16390477Y106179586D01*
X-12520001Y108719586D02*
X-12036191Y107026253D01*
X-11552381Y108235777D01*
X-11068572Y107026253D01*
X-10584762Y108719586D01*
X-8528572Y107026253D02*
X-8528572Y108356729D01*
X-8649524Y108598634D01*
X-8891429Y108719586D01*
X-9375239Y108719586D01*
X-9617143Y108598634D01*
X-8528572Y107147205D02*
X-8770477Y107026253D01*
X-9375239Y107026253D01*
X-9617143Y107147205D01*
X-9738096Y107389110D01*
X-9738096Y107631015D01*
X-9617143Y107872920D01*
X-9375239Y107993872D01*
X-8770477Y107993872D01*
X-8528572Y108114824D01*
X-7319048Y107026253D02*
X-7319048Y108719586D01*
X-7319048Y108235777D02*
X-7198096Y108477681D01*
X-7077143Y108598634D01*
X-6835239Y108719586D01*
X-6593334Y108719586D01*
X-5746667Y108719586D02*
X-5746667Y106179586D01*
X-5746667Y108598634D02*
X-5504762Y108719586D01*
X-5020953Y108719586D01*
X-4779048Y108598634D01*
X-4658096Y108477681D01*
X-4537143Y108235777D01*
X-4537143Y107510062D01*
X-4658096Y107268158D01*
X-4779048Y107147205D01*
X-5020953Y107026253D01*
X-5504762Y107026253D01*
X-5746667Y107147205D01*
X-3448572Y107026253D02*
X-3448572Y108719586D01*
X-3448572Y109566253D02*
X-3569524Y109445300D01*
X-3448572Y109324348D01*
X-3327620Y109445300D01*
X-3448572Y109566253D01*
X-3448572Y109324348D01*
X-2239048Y108719586D02*
X-2239048Y107026253D01*
X-2239048Y108477681D02*
X-2118096Y108598634D01*
X-1876191Y108719586D01*
X-1513334Y108719586D01*
X-1271429Y108598634D01*
X-1150477Y108356729D01*
X-1150477Y107026253D01*
X1147619Y108719586D02*
X1147619Y106663396D01*
X1026666Y106421491D01*
X905714Y106300539D01*
X663809Y106179586D01*
X300952Y106179586D01*
X59047Y106300539D01*
X1147619Y107147205D02*
X905714Y107026253D01*
X421904Y107026253D01*
X179999Y107147205D01*
X59047Y107268158D01*
X-61905Y107510062D01*
X-61905Y108235777D01*
X59047Y108477681D01*
X179999Y108598634D01*
X421904Y108719586D01*
X905714Y108719586D01*
X1147619Y108598634D01*
X4050476Y108719586D02*
X4534285Y107026253D01*
X5018095Y108235777D01*
X5501904Y107026253D01*
X5985714Y108719586D01*
X6953333Y107026253D02*
X6953333Y108719586D01*
X6953333Y109566253D02*
X6832380Y109445300D01*
X6953333Y109324348D01*
X7074285Y109445300D01*
X6953333Y109566253D01*
X6953333Y109324348D01*
X8525714Y107026253D02*
X8283809Y107147205D01*
X8162857Y107389110D01*
X8162857Y109566253D01*
X9856190Y107026253D02*
X9614285Y107147205D01*
X9493333Y107389110D01*
X9493333Y109566253D01*
X12759047Y107026253D02*
X12759047Y109566253D01*
X12759047Y108598634D02*
X13000952Y108719586D01*
X13484761Y108719586D01*
X13726666Y108598634D01*
X13847619Y108477681D01*
X13968571Y108235777D01*
X13968571Y107510062D01*
X13847619Y107268158D01*
X13726666Y107147205D01*
X13484761Y107026253D01*
X13000952Y107026253D01*
X12759047Y107147205D01*
X16024761Y107147205D02*
X15782857Y107026253D01*
X15299047Y107026253D01*
X15057142Y107147205D01*
X14936190Y107389110D01*
X14936190Y108356729D01*
X15057142Y108598634D01*
X15299047Y108719586D01*
X15782857Y108719586D01*
X16024761Y108598634D01*
X16145714Y108356729D01*
X16145714Y108114824D01*
X14936190Y107872920D01*
X20258095Y107147205D02*
X20016190Y107026253D01*
X19532380Y107026253D01*
X19290476Y107147205D01*
X19169523Y107268158D01*
X19048571Y107510062D01*
X19048571Y108235777D01*
X19169523Y108477681D01*
X19290476Y108598634D01*
X19532380Y108719586D01*
X20016190Y108719586D01*
X20258095Y108598634D01*
X21709523Y107026253D02*
X21467619Y107147205D01*
X21346666Y107268158D01*
X21225714Y107510062D01*
X21225714Y108235777D01*
X21346666Y108477681D01*
X21467619Y108598634D01*
X21709523Y108719586D01*
X22072380Y108719586D01*
X22314285Y108598634D01*
X22435238Y108477681D01*
X22556190Y108235777D01*
X22556190Y107510062D01*
X22435238Y107268158D01*
X22314285Y107147205D01*
X22072380Y107026253D01*
X21709523Y107026253D01*
X23644761Y107026253D02*
X23644761Y108719586D01*
X23644761Y108235777D02*
X23765714Y108477681D01*
X23886666Y108598634D01*
X24128571Y108719586D01*
X24370476Y108719586D01*
X25217142Y107026253D02*
X25217142Y108719586D01*
X25217142Y108235777D02*
X25338095Y108477681D01*
X25459047Y108598634D01*
X25700952Y108719586D01*
X25942857Y108719586D01*
X27757142Y107147205D02*
X27515238Y107026253D01*
X27031428Y107026253D01*
X26789523Y107147205D01*
X26668571Y107389110D01*
X26668571Y108356729D01*
X26789523Y108598634D01*
X27031428Y108719586D01*
X27515238Y108719586D01*
X27757142Y108598634D01*
X27878095Y108356729D01*
X27878095Y108114824D01*
X26668571Y107872920D01*
X30055238Y107147205D02*
X29813333Y107026253D01*
X29329523Y107026253D01*
X29087619Y107147205D01*
X28966666Y107268158D01*
X28845714Y107510062D01*
X28845714Y108235777D01*
X28966666Y108477681D01*
X29087619Y108598634D01*
X29329523Y108719586D01*
X29813333Y108719586D01*
X30055238Y108598634D01*
X30780952Y108719586D02*
X31748571Y108719586D01*
X31143809Y109566253D02*
X31143809Y107389110D01*
X31264761Y107147205D01*
X31506666Y107026253D01*
X31748571Y107026253D01*
X33562857Y107147205D02*
X33320952Y107026253D01*
X32837142Y107026253D01*
X32595238Y107147205D01*
X32474285Y107389110D01*
X32474285Y108356729D01*
X32595238Y108598634D01*
X32837142Y108719586D01*
X33320952Y108719586D01*
X33562857Y108598634D01*
X33683809Y108356729D01*
X33683809Y108114824D01*
X32474285Y107872920D01*
X35860952Y107026253D02*
X35860952Y109566253D01*
X35860952Y107147205D02*
X35619047Y107026253D01*
X35135238Y107026253D01*
X34893333Y107147205D01*
X34772380Y107268158D01*
X34651428Y107510062D01*
X34651428Y108235777D01*
X34772380Y108477681D01*
X34893333Y108598634D01*
X35135238Y108719586D01*
X35619047Y108719586D01*
X35860952Y108598634D01*
X37070476Y107268158D02*
X37191428Y107147205D01*
X37070476Y107026253D01*
X36949523Y107147205D01*
X37070476Y107268158D01*
X37070476Y107026253D01*
D12*
%TO.C,J1*%
X149222142Y78753572D02*
X149269761Y78705953D01*
X149317380Y78563096D01*
X149317380Y78467858D01*
X149269761Y78325000D01*
X149174523Y78229762D01*
X149079285Y78182143D01*
X148888809Y78134524D01*
X148745952Y78134524D01*
X148555476Y78182143D01*
X148460238Y78229762D01*
X148365000Y78325000D01*
X148317380Y78467858D01*
X148317380Y78563096D01*
X148365000Y78705953D01*
X148412619Y78753572D01*
X148317380Y79372620D02*
X148317380Y79563096D01*
X148365000Y79658334D01*
X148460238Y79753572D01*
X148650714Y79801191D01*
X148984047Y79801191D01*
X149174523Y79753572D01*
X149269761Y79658334D01*
X149317380Y79563096D01*
X149317380Y79372620D01*
X149269761Y79277381D01*
X149174523Y79182143D01*
X148984047Y79134524D01*
X148650714Y79134524D01*
X148460238Y79182143D01*
X148365000Y79277381D01*
X148317380Y79372620D01*
X149317380Y80229762D02*
X148317380Y80229762D01*
X149317380Y80801191D01*
X148317380Y80801191D01*
X149317380Y81277381D02*
X148317380Y81277381D01*
X149317380Y81848810D01*
X148317380Y81848810D01*
X149412619Y82086905D02*
X149412619Y82848810D01*
X149222142Y83658334D02*
X149269761Y83610715D01*
X149317380Y83467858D01*
X149317380Y83372620D01*
X149269761Y83229762D01*
X149174523Y83134524D01*
X149079285Y83086905D01*
X148888809Y83039286D01*
X148745952Y83039286D01*
X148555476Y83086905D01*
X148460238Y83134524D01*
X148365000Y83229762D01*
X148317380Y83372620D01*
X148317380Y83467858D01*
X148365000Y83610715D01*
X148412619Y83658334D01*
X149031666Y84039286D02*
X149031666Y84515477D01*
X149317380Y83944048D02*
X148317380Y84277381D01*
X149317380Y84610715D01*
X149317380Y84944048D02*
X148317380Y84944048D01*
X148317380Y85325000D01*
X148365000Y85420239D01*
X148412619Y85467858D01*
X148507857Y85515477D01*
X148650714Y85515477D01*
X148745952Y85467858D01*
X148793571Y85420239D01*
X148841190Y85325000D01*
X148841190Y84944048D01*
X149412619Y85705953D02*
X149412619Y86467858D01*
X149317380Y86705953D02*
X148317380Y86705953D01*
X148793571Y87515477D02*
X148841190Y87658334D01*
X148888809Y87705953D01*
X148984047Y87753572D01*
X149126904Y87753572D01*
X149222142Y87705953D01*
X149269761Y87658334D01*
X149317380Y87563096D01*
X149317380Y87182143D01*
X148317380Y87182143D01*
X148317380Y87515477D01*
X148365000Y87610715D01*
X148412619Y87658334D01*
X148507857Y87705953D01*
X148603095Y87705953D01*
X148698333Y87658334D01*
X148745952Y87610715D01*
X148793571Y87515477D01*
X148793571Y87182143D01*
X149317380Y88182143D02*
X148317380Y88182143D01*
X149031666Y88515477D01*
X148317380Y88848810D01*
X149317380Y88848810D01*
X149412619Y89086905D02*
X149412619Y89848810D01*
X148793571Y90420239D02*
X148793571Y90086905D01*
X149317380Y90086905D02*
X148317380Y90086905D01*
X148317380Y90563096D01*
X83981666Y85067620D02*
X83981666Y84353334D01*
X83934047Y84210477D01*
X83838809Y84115239D01*
X83695952Y84067620D01*
X83600714Y84067620D01*
X84981666Y84067620D02*
X84410238Y84067620D01*
X84695952Y84067620D02*
X84695952Y85067620D01*
X84600714Y84924762D01*
X84505476Y84829524D01*
X84410238Y84781905D01*
%TO.C,ROW_1_TP1*%
X215498809Y-28122380D02*
X215165476Y-27646190D01*
X214927380Y-28122380D02*
X214927380Y-27122380D01*
X215308333Y-27122380D01*
X215403571Y-27170000D01*
X215451190Y-27217619D01*
X215498809Y-27312857D01*
X215498809Y-27455714D01*
X215451190Y-27550952D01*
X215403571Y-27598571D01*
X215308333Y-27646190D01*
X214927380Y-27646190D01*
X216451190Y-28122380D02*
X215879761Y-28122380D01*
X216165476Y-28122380D02*
X216165476Y-27122380D01*
X216070238Y-27265238D01*
X215975000Y-27360476D01*
X215879761Y-27408095D01*
X216641666Y-28217619D02*
X217403571Y-28217619D01*
X217498809Y-27122380D02*
X218070238Y-27122380D01*
X217784523Y-28122380D02*
X217784523Y-27122380D01*
X218784523Y-28074761D02*
X218689285Y-28122380D01*
X218498809Y-28122380D01*
X218403571Y-28074761D01*
X218355952Y-27979523D01*
X218355952Y-27598571D01*
X218403571Y-27503333D01*
X218498809Y-27455714D01*
X218689285Y-27455714D01*
X218784523Y-27503333D01*
X218832142Y-27598571D01*
X218832142Y-27693809D01*
X218355952Y-27789047D01*
X219213095Y-28074761D02*
X219308333Y-28122380D01*
X219498809Y-28122380D01*
X219594047Y-28074761D01*
X219641666Y-27979523D01*
X219641666Y-27931904D01*
X219594047Y-27836666D01*
X219498809Y-27789047D01*
X219355952Y-27789047D01*
X219260714Y-27741428D01*
X219213095Y-27646190D01*
X219213095Y-27598571D01*
X219260714Y-27503333D01*
X219355952Y-27455714D01*
X219498809Y-27455714D01*
X219594047Y-27503333D01*
X219927380Y-27455714D02*
X220308333Y-27455714D01*
X220070238Y-27122380D02*
X220070238Y-27979523D01*
X220117857Y-28074761D01*
X220213095Y-28122380D01*
X220308333Y-28122380D01*
X220641666Y-28122380D02*
X220641666Y-27122380D01*
X221022619Y-27122380D01*
X221117857Y-27170000D01*
X221165476Y-27217619D01*
X221213095Y-27312857D01*
X221213095Y-27455714D01*
X221165476Y-27550952D01*
X221117857Y-27598571D01*
X221022619Y-27646190D01*
X220641666Y-27646190D01*
X221784523Y-28122380D02*
X221689285Y-28074761D01*
X221641666Y-28027142D01*
X221594047Y-27931904D01*
X221594047Y-27646190D01*
X221641666Y-27550952D01*
X221689285Y-27503333D01*
X221784523Y-27455714D01*
X221927380Y-27455714D01*
X222022619Y-27503333D01*
X222070238Y-27550952D01*
X222117857Y-27646190D01*
X222117857Y-27931904D01*
X222070238Y-28027142D01*
X222022619Y-28074761D01*
X221927380Y-28122380D01*
X221784523Y-28122380D01*
X222546428Y-28122380D02*
X222546428Y-27455714D01*
X222546428Y-27122380D02*
X222498809Y-27170000D01*
X222546428Y-27217619D01*
X222594047Y-27170000D01*
X222546428Y-27122380D01*
X222546428Y-27217619D01*
X223022619Y-27455714D02*
X223022619Y-28122380D01*
X223022619Y-27550952D02*
X223070238Y-27503333D01*
X223165476Y-27455714D01*
X223308333Y-27455714D01*
X223403571Y-27503333D01*
X223451190Y-27598571D01*
X223451190Y-28122380D01*
X223784523Y-27455714D02*
X224165476Y-27455714D01*
X223927380Y-27122380D02*
X223927380Y-27979523D01*
X223975000Y-28074761D01*
X224070238Y-28122380D01*
X224165476Y-28122380D01*
X216394047Y-25080380D02*
X216060714Y-24604190D01*
X215822619Y-25080380D02*
X215822619Y-24080380D01*
X216203571Y-24080380D01*
X216298809Y-24128000D01*
X216346428Y-24175619D01*
X216394047Y-24270857D01*
X216394047Y-24413714D01*
X216346428Y-24508952D01*
X216298809Y-24556571D01*
X216203571Y-24604190D01*
X215822619Y-24604190D01*
X217013095Y-24080380D02*
X217203571Y-24080380D01*
X217298809Y-24128000D01*
X217394047Y-24223238D01*
X217441666Y-24413714D01*
X217441666Y-24747047D01*
X217394047Y-24937523D01*
X217298809Y-25032761D01*
X217203571Y-25080380D01*
X217013095Y-25080380D01*
X216917857Y-25032761D01*
X216822619Y-24937523D01*
X216775000Y-24747047D01*
X216775000Y-24413714D01*
X216822619Y-24223238D01*
X216917857Y-24128000D01*
X217013095Y-24080380D01*
X217775000Y-24080380D02*
X218013095Y-25080380D01*
X218203571Y-24366095D01*
X218394047Y-25080380D01*
X218632142Y-24080380D01*
X218775000Y-25175619D02*
X219536904Y-25175619D01*
X220298809Y-25080380D02*
X219727380Y-25080380D01*
X220013095Y-25080380D02*
X220013095Y-24080380D01*
X219917857Y-24223238D01*
X219822619Y-24318476D01*
X219727380Y-24366095D01*
X220489285Y-25175619D02*
X221251190Y-25175619D01*
X221346428Y-24080380D02*
X221917857Y-24080380D01*
X221632142Y-25080380D02*
X221632142Y-24080380D01*
X222251190Y-25080380D02*
X222251190Y-24080380D01*
X222632142Y-24080380D01*
X222727380Y-24128000D01*
X222775000Y-24175619D01*
X222822619Y-24270857D01*
X222822619Y-24413714D01*
X222775000Y-24508952D01*
X222727380Y-24556571D01*
X222632142Y-24604190D01*
X222251190Y-24604190D01*
X223775000Y-25080380D02*
X223203571Y-25080380D01*
X223489285Y-25080380D02*
X223489285Y-24080380D01*
X223394047Y-24223238D01*
X223298809Y-24318476D01*
X223203571Y-24366095D01*
%TO.C,ROW_2_TP2*%
X216132809Y-7040380D02*
X215799476Y-6564190D01*
X215561380Y-7040380D02*
X215561380Y-6040380D01*
X215942333Y-6040380D01*
X216037571Y-6088000D01*
X216085190Y-6135619D01*
X216132809Y-6230857D01*
X216132809Y-6373714D01*
X216085190Y-6468952D01*
X216037571Y-6516571D01*
X215942333Y-6564190D01*
X215561380Y-6564190D01*
X216513761Y-6135619D02*
X216561380Y-6088000D01*
X216656619Y-6040380D01*
X216894714Y-6040380D01*
X216989952Y-6088000D01*
X217037571Y-6135619D01*
X217085190Y-6230857D01*
X217085190Y-6326095D01*
X217037571Y-6468952D01*
X216466142Y-7040380D01*
X217085190Y-7040380D01*
X217275666Y-7135619D02*
X218037571Y-7135619D01*
X218132809Y-6040380D02*
X218704238Y-6040380D01*
X218418523Y-7040380D02*
X218418523Y-6040380D01*
X219418523Y-6992761D02*
X219323285Y-7040380D01*
X219132809Y-7040380D01*
X219037571Y-6992761D01*
X218989952Y-6897523D01*
X218989952Y-6516571D01*
X219037571Y-6421333D01*
X219132809Y-6373714D01*
X219323285Y-6373714D01*
X219418523Y-6421333D01*
X219466142Y-6516571D01*
X219466142Y-6611809D01*
X218989952Y-6707047D01*
X219847095Y-6992761D02*
X219942333Y-7040380D01*
X220132809Y-7040380D01*
X220228047Y-6992761D01*
X220275666Y-6897523D01*
X220275666Y-6849904D01*
X220228047Y-6754666D01*
X220132809Y-6707047D01*
X219989952Y-6707047D01*
X219894714Y-6659428D01*
X219847095Y-6564190D01*
X219847095Y-6516571D01*
X219894714Y-6421333D01*
X219989952Y-6373714D01*
X220132809Y-6373714D01*
X220228047Y-6421333D01*
X220561380Y-6373714D02*
X220942333Y-6373714D01*
X220704238Y-6040380D02*
X220704238Y-6897523D01*
X220751857Y-6992761D01*
X220847095Y-7040380D01*
X220942333Y-7040380D01*
X221275666Y-7040380D02*
X221275666Y-6040380D01*
X221656619Y-6040380D01*
X221751857Y-6088000D01*
X221799476Y-6135619D01*
X221847095Y-6230857D01*
X221847095Y-6373714D01*
X221799476Y-6468952D01*
X221751857Y-6516571D01*
X221656619Y-6564190D01*
X221275666Y-6564190D01*
X222418523Y-7040380D02*
X222323285Y-6992761D01*
X222275666Y-6945142D01*
X222228047Y-6849904D01*
X222228047Y-6564190D01*
X222275666Y-6468952D01*
X222323285Y-6421333D01*
X222418523Y-6373714D01*
X222561380Y-6373714D01*
X222656619Y-6421333D01*
X222704238Y-6468952D01*
X222751857Y-6564190D01*
X222751857Y-6849904D01*
X222704238Y-6945142D01*
X222656619Y-6992761D01*
X222561380Y-7040380D01*
X222418523Y-7040380D01*
X223180428Y-7040380D02*
X223180428Y-6373714D01*
X223180428Y-6040380D02*
X223132809Y-6088000D01*
X223180428Y-6135619D01*
X223228047Y-6088000D01*
X223180428Y-6040380D01*
X223180428Y-6135619D01*
X223656619Y-6373714D02*
X223656619Y-7040380D01*
X223656619Y-6468952D02*
X223704238Y-6421333D01*
X223799476Y-6373714D01*
X223942333Y-6373714D01*
X224037571Y-6421333D01*
X224085190Y-6516571D01*
X224085190Y-7040380D01*
X224418523Y-6373714D02*
X224799476Y-6373714D01*
X224561380Y-6040380D02*
X224561380Y-6897523D01*
X224609000Y-6992761D01*
X224704238Y-7040380D01*
X224799476Y-7040380D01*
X216728047Y-4040380D02*
X216394714Y-3564190D01*
X216156619Y-4040380D02*
X216156619Y-3040380D01*
X216537571Y-3040380D01*
X216632809Y-3088000D01*
X216680428Y-3135619D01*
X216728047Y-3230857D01*
X216728047Y-3373714D01*
X216680428Y-3468952D01*
X216632809Y-3516571D01*
X216537571Y-3564190D01*
X216156619Y-3564190D01*
X217347095Y-3040380D02*
X217537571Y-3040380D01*
X217632809Y-3088000D01*
X217728047Y-3183238D01*
X217775666Y-3373714D01*
X217775666Y-3707047D01*
X217728047Y-3897523D01*
X217632809Y-3992761D01*
X217537571Y-4040380D01*
X217347095Y-4040380D01*
X217251857Y-3992761D01*
X217156619Y-3897523D01*
X217109000Y-3707047D01*
X217109000Y-3373714D01*
X217156619Y-3183238D01*
X217251857Y-3088000D01*
X217347095Y-3040380D01*
X218109000Y-3040380D02*
X218347095Y-4040380D01*
X218537571Y-3326095D01*
X218728047Y-4040380D01*
X218966142Y-3040380D01*
X219109000Y-4135619D02*
X219870904Y-4135619D01*
X220061380Y-3135619D02*
X220109000Y-3088000D01*
X220204238Y-3040380D01*
X220442333Y-3040380D01*
X220537571Y-3088000D01*
X220585190Y-3135619D01*
X220632809Y-3230857D01*
X220632809Y-3326095D01*
X220585190Y-3468952D01*
X220013761Y-4040380D01*
X220632809Y-4040380D01*
X220823285Y-4135619D02*
X221585190Y-4135619D01*
X221680428Y-3040380D02*
X222251857Y-3040380D01*
X221966142Y-4040380D02*
X221966142Y-3040380D01*
X222585190Y-4040380D02*
X222585190Y-3040380D01*
X222966142Y-3040380D01*
X223061380Y-3088000D01*
X223109000Y-3135619D01*
X223156619Y-3230857D01*
X223156619Y-3373714D01*
X223109000Y-3468952D01*
X223061380Y-3516571D01*
X222966142Y-3564190D01*
X222585190Y-3564190D01*
X223537571Y-3135619D02*
X223585190Y-3088000D01*
X223680428Y-3040380D01*
X223918523Y-3040380D01*
X224013761Y-3088000D01*
X224061380Y-3135619D01*
X224109000Y-3230857D01*
X224109000Y-3326095D01*
X224061380Y-3468952D01*
X223489952Y-4040380D01*
X224109000Y-4040380D01*
%TO.C,ROW_3_TP3*%
X216132809Y14041620D02*
X215799476Y14517810D01*
X215561380Y14041620D02*
X215561380Y15041620D01*
X215942333Y15041620D01*
X216037571Y14994000D01*
X216085190Y14946381D01*
X216132809Y14851143D01*
X216132809Y14708286D01*
X216085190Y14613048D01*
X216037571Y14565429D01*
X215942333Y14517810D01*
X215561380Y14517810D01*
X216466142Y15041620D02*
X217085190Y15041620D01*
X216751857Y14660667D01*
X216894714Y14660667D01*
X216989952Y14613048D01*
X217037571Y14565429D01*
X217085190Y14470191D01*
X217085190Y14232096D01*
X217037571Y14136858D01*
X216989952Y14089239D01*
X216894714Y14041620D01*
X216609000Y14041620D01*
X216513761Y14089239D01*
X216466142Y14136858D01*
X217275666Y13946381D02*
X218037571Y13946381D01*
X218132809Y15041620D02*
X218704238Y15041620D01*
X218418523Y14041620D02*
X218418523Y15041620D01*
X219418523Y14089239D02*
X219323285Y14041620D01*
X219132809Y14041620D01*
X219037571Y14089239D01*
X218989952Y14184477D01*
X218989952Y14565429D01*
X219037571Y14660667D01*
X219132809Y14708286D01*
X219323285Y14708286D01*
X219418523Y14660667D01*
X219466142Y14565429D01*
X219466142Y14470191D01*
X218989952Y14374953D01*
X219847095Y14089239D02*
X219942333Y14041620D01*
X220132809Y14041620D01*
X220228047Y14089239D01*
X220275666Y14184477D01*
X220275666Y14232096D01*
X220228047Y14327334D01*
X220132809Y14374953D01*
X219989952Y14374953D01*
X219894714Y14422572D01*
X219847095Y14517810D01*
X219847095Y14565429D01*
X219894714Y14660667D01*
X219989952Y14708286D01*
X220132809Y14708286D01*
X220228047Y14660667D01*
X220561380Y14708286D02*
X220942333Y14708286D01*
X220704238Y15041620D02*
X220704238Y14184477D01*
X220751857Y14089239D01*
X220847095Y14041620D01*
X220942333Y14041620D01*
X221275666Y14041620D02*
X221275666Y15041620D01*
X221656619Y15041620D01*
X221751857Y14994000D01*
X221799476Y14946381D01*
X221847095Y14851143D01*
X221847095Y14708286D01*
X221799476Y14613048D01*
X221751857Y14565429D01*
X221656619Y14517810D01*
X221275666Y14517810D01*
X222418523Y14041620D02*
X222323285Y14089239D01*
X222275666Y14136858D01*
X222228047Y14232096D01*
X222228047Y14517810D01*
X222275666Y14613048D01*
X222323285Y14660667D01*
X222418523Y14708286D01*
X222561380Y14708286D01*
X222656619Y14660667D01*
X222704238Y14613048D01*
X222751857Y14517810D01*
X222751857Y14232096D01*
X222704238Y14136858D01*
X222656619Y14089239D01*
X222561380Y14041620D01*
X222418523Y14041620D01*
X223180428Y14041620D02*
X223180428Y14708286D01*
X223180428Y15041620D02*
X223132809Y14994000D01*
X223180428Y14946381D01*
X223228047Y14994000D01*
X223180428Y15041620D01*
X223180428Y14946381D01*
X223656619Y14708286D02*
X223656619Y14041620D01*
X223656619Y14613048D02*
X223704238Y14660667D01*
X223799476Y14708286D01*
X223942333Y14708286D01*
X224037571Y14660667D01*
X224085190Y14565429D01*
X224085190Y14041620D01*
X224418523Y14708286D02*
X224799476Y14708286D01*
X224561380Y15041620D02*
X224561380Y14184477D01*
X224609000Y14089239D01*
X224704238Y14041620D01*
X224799476Y14041620D01*
X216728047Y17041620D02*
X216394714Y17517810D01*
X216156619Y17041620D02*
X216156619Y18041620D01*
X216537571Y18041620D01*
X216632809Y17994000D01*
X216680428Y17946381D01*
X216728047Y17851143D01*
X216728047Y17708286D01*
X216680428Y17613048D01*
X216632809Y17565429D01*
X216537571Y17517810D01*
X216156619Y17517810D01*
X217347095Y18041620D02*
X217537571Y18041620D01*
X217632809Y17994000D01*
X217728047Y17898762D01*
X217775666Y17708286D01*
X217775666Y17374953D01*
X217728047Y17184477D01*
X217632809Y17089239D01*
X217537571Y17041620D01*
X217347095Y17041620D01*
X217251857Y17089239D01*
X217156619Y17184477D01*
X217109000Y17374953D01*
X217109000Y17708286D01*
X217156619Y17898762D01*
X217251857Y17994000D01*
X217347095Y18041620D01*
X218109000Y18041620D02*
X218347095Y17041620D01*
X218537571Y17755905D01*
X218728047Y17041620D01*
X218966142Y18041620D01*
X219109000Y16946381D02*
X219870904Y16946381D01*
X220013761Y18041620D02*
X220632809Y18041620D01*
X220299476Y17660667D01*
X220442333Y17660667D01*
X220537571Y17613048D01*
X220585190Y17565429D01*
X220632809Y17470191D01*
X220632809Y17232096D01*
X220585190Y17136858D01*
X220537571Y17089239D01*
X220442333Y17041620D01*
X220156619Y17041620D01*
X220061380Y17089239D01*
X220013761Y17136858D01*
X220823285Y16946381D02*
X221585190Y16946381D01*
X221680428Y18041620D02*
X222251857Y18041620D01*
X221966142Y17041620D02*
X221966142Y18041620D01*
X222585190Y17041620D02*
X222585190Y18041620D01*
X222966142Y18041620D01*
X223061380Y17994000D01*
X223109000Y17946381D01*
X223156619Y17851143D01*
X223156619Y17708286D01*
X223109000Y17613048D01*
X223061380Y17565429D01*
X222966142Y17517810D01*
X222585190Y17517810D01*
X223489952Y18041620D02*
X224109000Y18041620D01*
X223775666Y17660667D01*
X223918523Y17660667D01*
X224013761Y17613048D01*
X224061380Y17565429D01*
X224109000Y17470191D01*
X224109000Y17232096D01*
X224061380Y17136858D01*
X224013761Y17089239D01*
X223918523Y17041620D01*
X223632809Y17041620D01*
X223537571Y17089239D01*
X223489952Y17136858D01*
%TO.C,ROW_4_TP4*%
X182096809Y5913620D02*
X181763476Y6389810D01*
X181525380Y5913620D02*
X181525380Y6913620D01*
X181906333Y6913620D01*
X182001571Y6866000D01*
X182049190Y6818381D01*
X182096809Y6723143D01*
X182096809Y6580286D01*
X182049190Y6485048D01*
X182001571Y6437429D01*
X181906333Y6389810D01*
X181525380Y6389810D01*
X182953952Y6580286D02*
X182953952Y5913620D01*
X182715857Y6961239D02*
X182477761Y6246953D01*
X183096809Y6246953D01*
X183239666Y5818381D02*
X184001571Y5818381D01*
X184096809Y6913620D02*
X184668238Y6913620D01*
X184382523Y5913620D02*
X184382523Y6913620D01*
X185382523Y5961239D02*
X185287285Y5913620D01*
X185096809Y5913620D01*
X185001571Y5961239D01*
X184953952Y6056477D01*
X184953952Y6437429D01*
X185001571Y6532667D01*
X185096809Y6580286D01*
X185287285Y6580286D01*
X185382523Y6532667D01*
X185430142Y6437429D01*
X185430142Y6342191D01*
X184953952Y6246953D01*
X185811095Y5961239D02*
X185906333Y5913620D01*
X186096809Y5913620D01*
X186192047Y5961239D01*
X186239666Y6056477D01*
X186239666Y6104096D01*
X186192047Y6199334D01*
X186096809Y6246953D01*
X185953952Y6246953D01*
X185858714Y6294572D01*
X185811095Y6389810D01*
X185811095Y6437429D01*
X185858714Y6532667D01*
X185953952Y6580286D01*
X186096809Y6580286D01*
X186192047Y6532667D01*
X186525380Y6580286D02*
X186906333Y6580286D01*
X186668238Y6913620D02*
X186668238Y6056477D01*
X186715857Y5961239D01*
X186811095Y5913620D01*
X186906333Y5913620D01*
X187239666Y5913620D02*
X187239666Y6913620D01*
X187620619Y6913620D01*
X187715857Y6866000D01*
X187763476Y6818381D01*
X187811095Y6723143D01*
X187811095Y6580286D01*
X187763476Y6485048D01*
X187715857Y6437429D01*
X187620619Y6389810D01*
X187239666Y6389810D01*
X188382523Y5913620D02*
X188287285Y5961239D01*
X188239666Y6008858D01*
X188192047Y6104096D01*
X188192047Y6389810D01*
X188239666Y6485048D01*
X188287285Y6532667D01*
X188382523Y6580286D01*
X188525380Y6580286D01*
X188620619Y6532667D01*
X188668238Y6485048D01*
X188715857Y6389810D01*
X188715857Y6104096D01*
X188668238Y6008858D01*
X188620619Y5961239D01*
X188525380Y5913620D01*
X188382523Y5913620D01*
X189144428Y5913620D02*
X189144428Y6580286D01*
X189144428Y6913620D02*
X189096809Y6866000D01*
X189144428Y6818381D01*
X189192047Y6866000D01*
X189144428Y6913620D01*
X189144428Y6818381D01*
X189620619Y6580286D02*
X189620619Y5913620D01*
X189620619Y6485048D02*
X189668238Y6532667D01*
X189763476Y6580286D01*
X189906333Y6580286D01*
X190001571Y6532667D01*
X190049190Y6437429D01*
X190049190Y5913620D01*
X190382523Y6580286D02*
X190763476Y6580286D01*
X190525380Y6913620D02*
X190525380Y6056477D01*
X190573000Y5961239D01*
X190668238Y5913620D01*
X190763476Y5913620D01*
X182692047Y8913620D02*
X182358714Y9389810D01*
X182120619Y8913620D02*
X182120619Y9913620D01*
X182501571Y9913620D01*
X182596809Y9866000D01*
X182644428Y9818381D01*
X182692047Y9723143D01*
X182692047Y9580286D01*
X182644428Y9485048D01*
X182596809Y9437429D01*
X182501571Y9389810D01*
X182120619Y9389810D01*
X183311095Y9913620D02*
X183501571Y9913620D01*
X183596809Y9866000D01*
X183692047Y9770762D01*
X183739666Y9580286D01*
X183739666Y9246953D01*
X183692047Y9056477D01*
X183596809Y8961239D01*
X183501571Y8913620D01*
X183311095Y8913620D01*
X183215857Y8961239D01*
X183120619Y9056477D01*
X183073000Y9246953D01*
X183073000Y9580286D01*
X183120619Y9770762D01*
X183215857Y9866000D01*
X183311095Y9913620D01*
X184073000Y9913620D02*
X184311095Y8913620D01*
X184501571Y9627905D01*
X184692047Y8913620D01*
X184930142Y9913620D01*
X185073000Y8818381D02*
X185834904Y8818381D01*
X186501571Y9580286D02*
X186501571Y8913620D01*
X186263476Y9961239D02*
X186025380Y9246953D01*
X186644428Y9246953D01*
X186787285Y8818381D02*
X187549190Y8818381D01*
X187644428Y9913620D02*
X188215857Y9913620D01*
X187930142Y8913620D02*
X187930142Y9913620D01*
X188549190Y8913620D02*
X188549190Y9913620D01*
X188930142Y9913620D01*
X189025380Y9866000D01*
X189073000Y9818381D01*
X189120619Y9723143D01*
X189120619Y9580286D01*
X189073000Y9485048D01*
X189025380Y9437429D01*
X188930142Y9389810D01*
X188549190Y9389810D01*
X189977761Y9580286D02*
X189977761Y8913620D01*
X189739666Y9961239D02*
X189501571Y9246953D01*
X190120619Y9246953D01*
%TO.C,ROW_5_TP5*%
X215624809Y34869620D02*
X215291476Y35345810D01*
X215053380Y34869620D02*
X215053380Y35869620D01*
X215434333Y35869620D01*
X215529571Y35822000D01*
X215577190Y35774381D01*
X215624809Y35679143D01*
X215624809Y35536286D01*
X215577190Y35441048D01*
X215529571Y35393429D01*
X215434333Y35345810D01*
X215053380Y35345810D01*
X216529571Y35869620D02*
X216053380Y35869620D01*
X216005761Y35393429D01*
X216053380Y35441048D01*
X216148619Y35488667D01*
X216386714Y35488667D01*
X216481952Y35441048D01*
X216529571Y35393429D01*
X216577190Y35298191D01*
X216577190Y35060096D01*
X216529571Y34964858D01*
X216481952Y34917239D01*
X216386714Y34869620D01*
X216148619Y34869620D01*
X216053380Y34917239D01*
X216005761Y34964858D01*
X216767666Y34774381D02*
X217529571Y34774381D01*
X217624809Y35869620D02*
X218196238Y35869620D01*
X217910523Y34869620D02*
X217910523Y35869620D01*
X218910523Y34917239D02*
X218815285Y34869620D01*
X218624809Y34869620D01*
X218529571Y34917239D01*
X218481952Y35012477D01*
X218481952Y35393429D01*
X218529571Y35488667D01*
X218624809Y35536286D01*
X218815285Y35536286D01*
X218910523Y35488667D01*
X218958142Y35393429D01*
X218958142Y35298191D01*
X218481952Y35202953D01*
X219339095Y34917239D02*
X219434333Y34869620D01*
X219624809Y34869620D01*
X219720047Y34917239D01*
X219767666Y35012477D01*
X219767666Y35060096D01*
X219720047Y35155334D01*
X219624809Y35202953D01*
X219481952Y35202953D01*
X219386714Y35250572D01*
X219339095Y35345810D01*
X219339095Y35393429D01*
X219386714Y35488667D01*
X219481952Y35536286D01*
X219624809Y35536286D01*
X219720047Y35488667D01*
X220053380Y35536286D02*
X220434333Y35536286D01*
X220196238Y35869620D02*
X220196238Y35012477D01*
X220243857Y34917239D01*
X220339095Y34869620D01*
X220434333Y34869620D01*
X220767666Y34869620D02*
X220767666Y35869620D01*
X221148619Y35869620D01*
X221243857Y35822000D01*
X221291476Y35774381D01*
X221339095Y35679143D01*
X221339095Y35536286D01*
X221291476Y35441048D01*
X221243857Y35393429D01*
X221148619Y35345810D01*
X220767666Y35345810D01*
X221910523Y34869620D02*
X221815285Y34917239D01*
X221767666Y34964858D01*
X221720047Y35060096D01*
X221720047Y35345810D01*
X221767666Y35441048D01*
X221815285Y35488667D01*
X221910523Y35536286D01*
X222053380Y35536286D01*
X222148619Y35488667D01*
X222196238Y35441048D01*
X222243857Y35345810D01*
X222243857Y35060096D01*
X222196238Y34964858D01*
X222148619Y34917239D01*
X222053380Y34869620D01*
X221910523Y34869620D01*
X222672428Y34869620D02*
X222672428Y35536286D01*
X222672428Y35869620D02*
X222624809Y35822000D01*
X222672428Y35774381D01*
X222720047Y35822000D01*
X222672428Y35869620D01*
X222672428Y35774381D01*
X223148619Y35536286D02*
X223148619Y34869620D01*
X223148619Y35441048D02*
X223196238Y35488667D01*
X223291476Y35536286D01*
X223434333Y35536286D01*
X223529571Y35488667D01*
X223577190Y35393429D01*
X223577190Y34869620D01*
X223910523Y35536286D02*
X224291476Y35536286D01*
X224053380Y35869620D02*
X224053380Y35012477D01*
X224101000Y34917239D01*
X224196238Y34869620D01*
X224291476Y34869620D01*
X216220047Y37869620D02*
X215886714Y38345810D01*
X215648619Y37869620D02*
X215648619Y38869620D01*
X216029571Y38869620D01*
X216124809Y38822000D01*
X216172428Y38774381D01*
X216220047Y38679143D01*
X216220047Y38536286D01*
X216172428Y38441048D01*
X216124809Y38393429D01*
X216029571Y38345810D01*
X215648619Y38345810D01*
X216839095Y38869620D02*
X217029571Y38869620D01*
X217124809Y38822000D01*
X217220047Y38726762D01*
X217267666Y38536286D01*
X217267666Y38202953D01*
X217220047Y38012477D01*
X217124809Y37917239D01*
X217029571Y37869620D01*
X216839095Y37869620D01*
X216743857Y37917239D01*
X216648619Y38012477D01*
X216601000Y38202953D01*
X216601000Y38536286D01*
X216648619Y38726762D01*
X216743857Y38822000D01*
X216839095Y38869620D01*
X217601000Y38869620D02*
X217839095Y37869620D01*
X218029571Y38583905D01*
X218220047Y37869620D01*
X218458142Y38869620D01*
X218601000Y37774381D02*
X219362904Y37774381D01*
X220077190Y38869620D02*
X219601000Y38869620D01*
X219553380Y38393429D01*
X219601000Y38441048D01*
X219696238Y38488667D01*
X219934333Y38488667D01*
X220029571Y38441048D01*
X220077190Y38393429D01*
X220124809Y38298191D01*
X220124809Y38060096D01*
X220077190Y37964858D01*
X220029571Y37917239D01*
X219934333Y37869620D01*
X219696238Y37869620D01*
X219601000Y37917239D01*
X219553380Y37964858D01*
X220315285Y37774381D02*
X221077190Y37774381D01*
X221172428Y38869620D02*
X221743857Y38869620D01*
X221458142Y37869620D02*
X221458142Y38869620D01*
X222077190Y37869620D02*
X222077190Y38869620D01*
X222458142Y38869620D01*
X222553380Y38822000D01*
X222601000Y38774381D01*
X222648619Y38679143D01*
X222648619Y38536286D01*
X222601000Y38441048D01*
X222553380Y38393429D01*
X222458142Y38345810D01*
X222077190Y38345810D01*
X223553380Y38869620D02*
X223077190Y38869620D01*
X223029571Y38393429D01*
X223077190Y38441048D01*
X223172428Y38488667D01*
X223410523Y38488667D01*
X223505761Y38441048D01*
X223553380Y38393429D01*
X223601000Y38298191D01*
X223601000Y38060096D01*
X223553380Y37964858D01*
X223505761Y37917239D01*
X223410523Y37869620D01*
X223172428Y37869620D01*
X223077190Y37917239D01*
X223029571Y37964858D01*
%TO.C,ROW_6_TP6*%
X182348809Y44017620D02*
X182015476Y44493810D01*
X181777380Y44017620D02*
X181777380Y45017620D01*
X182158333Y45017620D01*
X182253571Y44970000D01*
X182301190Y44922381D01*
X182348809Y44827143D01*
X182348809Y44684286D01*
X182301190Y44589048D01*
X182253571Y44541429D01*
X182158333Y44493810D01*
X181777380Y44493810D01*
X183205952Y45017620D02*
X183015476Y45017620D01*
X182920238Y44970000D01*
X182872619Y44922381D01*
X182777380Y44779524D01*
X182729761Y44589048D01*
X182729761Y44208096D01*
X182777380Y44112858D01*
X182825000Y44065239D01*
X182920238Y44017620D01*
X183110714Y44017620D01*
X183205952Y44065239D01*
X183253571Y44112858D01*
X183301190Y44208096D01*
X183301190Y44446191D01*
X183253571Y44541429D01*
X183205952Y44589048D01*
X183110714Y44636667D01*
X182920238Y44636667D01*
X182825000Y44589048D01*
X182777380Y44541429D01*
X182729761Y44446191D01*
X183491666Y43922381D02*
X184253571Y43922381D01*
X184348809Y45017620D02*
X184920238Y45017620D01*
X184634523Y44017620D02*
X184634523Y45017620D01*
X185634523Y44065239D02*
X185539285Y44017620D01*
X185348809Y44017620D01*
X185253571Y44065239D01*
X185205952Y44160477D01*
X185205952Y44541429D01*
X185253571Y44636667D01*
X185348809Y44684286D01*
X185539285Y44684286D01*
X185634523Y44636667D01*
X185682142Y44541429D01*
X185682142Y44446191D01*
X185205952Y44350953D01*
X186063095Y44065239D02*
X186158333Y44017620D01*
X186348809Y44017620D01*
X186444047Y44065239D01*
X186491666Y44160477D01*
X186491666Y44208096D01*
X186444047Y44303334D01*
X186348809Y44350953D01*
X186205952Y44350953D01*
X186110714Y44398572D01*
X186063095Y44493810D01*
X186063095Y44541429D01*
X186110714Y44636667D01*
X186205952Y44684286D01*
X186348809Y44684286D01*
X186444047Y44636667D01*
X186777380Y44684286D02*
X187158333Y44684286D01*
X186920238Y45017620D02*
X186920238Y44160477D01*
X186967857Y44065239D01*
X187063095Y44017620D01*
X187158333Y44017620D01*
X187491666Y44017620D02*
X187491666Y45017620D01*
X187872619Y45017620D01*
X187967857Y44970000D01*
X188015476Y44922381D01*
X188063095Y44827143D01*
X188063095Y44684286D01*
X188015476Y44589048D01*
X187967857Y44541429D01*
X187872619Y44493810D01*
X187491666Y44493810D01*
X188634523Y44017620D02*
X188539285Y44065239D01*
X188491666Y44112858D01*
X188444047Y44208096D01*
X188444047Y44493810D01*
X188491666Y44589048D01*
X188539285Y44636667D01*
X188634523Y44684286D01*
X188777380Y44684286D01*
X188872619Y44636667D01*
X188920238Y44589048D01*
X188967857Y44493810D01*
X188967857Y44208096D01*
X188920238Y44112858D01*
X188872619Y44065239D01*
X188777380Y44017620D01*
X188634523Y44017620D01*
X189396428Y44017620D02*
X189396428Y44684286D01*
X189396428Y45017620D02*
X189348809Y44970000D01*
X189396428Y44922381D01*
X189444047Y44970000D01*
X189396428Y45017620D01*
X189396428Y44922381D01*
X189872619Y44684286D02*
X189872619Y44017620D01*
X189872619Y44589048D02*
X189920238Y44636667D01*
X190015476Y44684286D01*
X190158333Y44684286D01*
X190253571Y44636667D01*
X190301190Y44541429D01*
X190301190Y44017620D01*
X190634523Y44684286D02*
X191015476Y44684286D01*
X190777380Y45017620D02*
X190777380Y44160477D01*
X190825000Y44065239D01*
X190920238Y44017620D01*
X191015476Y44017620D01*
X182944047Y47017620D02*
X182610714Y47493810D01*
X182372619Y47017620D02*
X182372619Y48017620D01*
X182753571Y48017620D01*
X182848809Y47970000D01*
X182896428Y47922381D01*
X182944047Y47827143D01*
X182944047Y47684286D01*
X182896428Y47589048D01*
X182848809Y47541429D01*
X182753571Y47493810D01*
X182372619Y47493810D01*
X183563095Y48017620D02*
X183753571Y48017620D01*
X183848809Y47970000D01*
X183944047Y47874762D01*
X183991666Y47684286D01*
X183991666Y47350953D01*
X183944047Y47160477D01*
X183848809Y47065239D01*
X183753571Y47017620D01*
X183563095Y47017620D01*
X183467857Y47065239D01*
X183372619Y47160477D01*
X183325000Y47350953D01*
X183325000Y47684286D01*
X183372619Y47874762D01*
X183467857Y47970000D01*
X183563095Y48017620D01*
X184325000Y48017620D02*
X184563095Y47017620D01*
X184753571Y47731905D01*
X184944047Y47017620D01*
X185182142Y48017620D01*
X185325000Y46922381D02*
X186086904Y46922381D01*
X186753571Y48017620D02*
X186563095Y48017620D01*
X186467857Y47970000D01*
X186420238Y47922381D01*
X186325000Y47779524D01*
X186277380Y47589048D01*
X186277380Y47208096D01*
X186325000Y47112858D01*
X186372619Y47065239D01*
X186467857Y47017620D01*
X186658333Y47017620D01*
X186753571Y47065239D01*
X186801190Y47112858D01*
X186848809Y47208096D01*
X186848809Y47446191D01*
X186801190Y47541429D01*
X186753571Y47589048D01*
X186658333Y47636667D01*
X186467857Y47636667D01*
X186372619Y47589048D01*
X186325000Y47541429D01*
X186277380Y47446191D01*
X187039285Y46922381D02*
X187801190Y46922381D01*
X187896428Y48017620D02*
X188467857Y48017620D01*
X188182142Y47017620D02*
X188182142Y48017620D01*
X188801190Y47017620D02*
X188801190Y48017620D01*
X189182142Y48017620D01*
X189277380Y47970000D01*
X189325000Y47922381D01*
X189372619Y47827143D01*
X189372619Y47684286D01*
X189325000Y47589048D01*
X189277380Y47541429D01*
X189182142Y47493810D01*
X188801190Y47493810D01*
X190229761Y48017620D02*
X190039285Y48017620D01*
X189944047Y47970000D01*
X189896428Y47922381D01*
X189801190Y47779524D01*
X189753571Y47589048D01*
X189753571Y47208096D01*
X189801190Y47112858D01*
X189848809Y47065239D01*
X189944047Y47017620D01*
X190134523Y47017620D01*
X190229761Y47065239D01*
X190277380Y47112858D01*
X190325000Y47208096D01*
X190325000Y47446191D01*
X190277380Y47541429D01*
X190229761Y47589048D01*
X190134523Y47636667D01*
X189944047Y47636667D01*
X189848809Y47589048D01*
X189801190Y47541429D01*
X189753571Y47446191D01*
%TO.C,ROW_7_TP7*%
X215498809Y55951620D02*
X215165476Y56427810D01*
X214927380Y55951620D02*
X214927380Y56951620D01*
X215308333Y56951620D01*
X215403571Y56904000D01*
X215451190Y56856381D01*
X215498809Y56761143D01*
X215498809Y56618286D01*
X215451190Y56523048D01*
X215403571Y56475429D01*
X215308333Y56427810D01*
X214927380Y56427810D01*
X215832142Y56951620D02*
X216498809Y56951620D01*
X216070238Y55951620D01*
X216641666Y55856381D02*
X217403571Y55856381D01*
X217498809Y56951620D02*
X218070238Y56951620D01*
X217784523Y55951620D02*
X217784523Y56951620D01*
X218784523Y55999239D02*
X218689285Y55951620D01*
X218498809Y55951620D01*
X218403571Y55999239D01*
X218355952Y56094477D01*
X218355952Y56475429D01*
X218403571Y56570667D01*
X218498809Y56618286D01*
X218689285Y56618286D01*
X218784523Y56570667D01*
X218832142Y56475429D01*
X218832142Y56380191D01*
X218355952Y56284953D01*
X219213095Y55999239D02*
X219308333Y55951620D01*
X219498809Y55951620D01*
X219594047Y55999239D01*
X219641666Y56094477D01*
X219641666Y56142096D01*
X219594047Y56237334D01*
X219498809Y56284953D01*
X219355952Y56284953D01*
X219260714Y56332572D01*
X219213095Y56427810D01*
X219213095Y56475429D01*
X219260714Y56570667D01*
X219355952Y56618286D01*
X219498809Y56618286D01*
X219594047Y56570667D01*
X219927380Y56618286D02*
X220308333Y56618286D01*
X220070238Y56951620D02*
X220070238Y56094477D01*
X220117857Y55999239D01*
X220213095Y55951620D01*
X220308333Y55951620D01*
X220641666Y55951620D02*
X220641666Y56951620D01*
X221022619Y56951620D01*
X221117857Y56904000D01*
X221165476Y56856381D01*
X221213095Y56761143D01*
X221213095Y56618286D01*
X221165476Y56523048D01*
X221117857Y56475429D01*
X221022619Y56427810D01*
X220641666Y56427810D01*
X221784523Y55951620D02*
X221689285Y55999239D01*
X221641666Y56046858D01*
X221594047Y56142096D01*
X221594047Y56427810D01*
X221641666Y56523048D01*
X221689285Y56570667D01*
X221784523Y56618286D01*
X221927380Y56618286D01*
X222022619Y56570667D01*
X222070238Y56523048D01*
X222117857Y56427810D01*
X222117857Y56142096D01*
X222070238Y56046858D01*
X222022619Y55999239D01*
X221927380Y55951620D01*
X221784523Y55951620D01*
X222546428Y55951620D02*
X222546428Y56618286D01*
X222546428Y56951620D02*
X222498809Y56904000D01*
X222546428Y56856381D01*
X222594047Y56904000D01*
X222546428Y56951620D01*
X222546428Y56856381D01*
X223022619Y56618286D02*
X223022619Y55951620D01*
X223022619Y56523048D02*
X223070238Y56570667D01*
X223165476Y56618286D01*
X223308333Y56618286D01*
X223403571Y56570667D01*
X223451190Y56475429D01*
X223451190Y55951620D01*
X223784523Y56618286D02*
X224165476Y56618286D01*
X223927380Y56951620D02*
X223927380Y56094477D01*
X223975000Y55999239D01*
X224070238Y55951620D01*
X224165476Y55951620D01*
X216544047Y59217620D02*
X216210714Y59693810D01*
X215972619Y59217620D02*
X215972619Y60217620D01*
X216353571Y60217620D01*
X216448809Y60170000D01*
X216496428Y60122381D01*
X216544047Y60027143D01*
X216544047Y59884286D01*
X216496428Y59789048D01*
X216448809Y59741429D01*
X216353571Y59693810D01*
X215972619Y59693810D01*
X217163095Y60217620D02*
X217353571Y60217620D01*
X217448809Y60170000D01*
X217544047Y60074762D01*
X217591666Y59884286D01*
X217591666Y59550953D01*
X217544047Y59360477D01*
X217448809Y59265239D01*
X217353571Y59217620D01*
X217163095Y59217620D01*
X217067857Y59265239D01*
X216972619Y59360477D01*
X216925000Y59550953D01*
X216925000Y59884286D01*
X216972619Y60074762D01*
X217067857Y60170000D01*
X217163095Y60217620D01*
X217925000Y60217620D02*
X218163095Y59217620D01*
X218353571Y59931905D01*
X218544047Y59217620D01*
X218782142Y60217620D01*
X218925000Y59122381D02*
X219686904Y59122381D01*
X219829761Y60217620D02*
X220496428Y60217620D01*
X220067857Y59217620D01*
X220639285Y59122381D02*
X221401190Y59122381D01*
X221496428Y60217620D02*
X222067857Y60217620D01*
X221782142Y59217620D02*
X221782142Y60217620D01*
X222401190Y59217620D02*
X222401190Y60217620D01*
X222782142Y60217620D01*
X222877380Y60170000D01*
X222925000Y60122381D01*
X222972619Y60027143D01*
X222972619Y59884286D01*
X222925000Y59789048D01*
X222877380Y59741429D01*
X222782142Y59693810D01*
X222401190Y59693810D01*
X223305952Y60217620D02*
X223972619Y60217620D01*
X223544047Y59217620D01*
%TO.C,ROW_8_TP8*%
X182648809Y64417620D02*
X182315476Y64893810D01*
X182077380Y64417620D02*
X182077380Y65417620D01*
X182458333Y65417620D01*
X182553571Y65370000D01*
X182601190Y65322381D01*
X182648809Y65227143D01*
X182648809Y65084286D01*
X182601190Y64989048D01*
X182553571Y64941429D01*
X182458333Y64893810D01*
X182077380Y64893810D01*
X183220238Y64989048D02*
X183125000Y65036667D01*
X183077380Y65084286D01*
X183029761Y65179524D01*
X183029761Y65227143D01*
X183077380Y65322381D01*
X183125000Y65370000D01*
X183220238Y65417620D01*
X183410714Y65417620D01*
X183505952Y65370000D01*
X183553571Y65322381D01*
X183601190Y65227143D01*
X183601190Y65179524D01*
X183553571Y65084286D01*
X183505952Y65036667D01*
X183410714Y64989048D01*
X183220238Y64989048D01*
X183125000Y64941429D01*
X183077380Y64893810D01*
X183029761Y64798572D01*
X183029761Y64608096D01*
X183077380Y64512858D01*
X183125000Y64465239D01*
X183220238Y64417620D01*
X183410714Y64417620D01*
X183505952Y64465239D01*
X183553571Y64512858D01*
X183601190Y64608096D01*
X183601190Y64798572D01*
X183553571Y64893810D01*
X183505952Y64941429D01*
X183410714Y64989048D01*
X183791666Y64322381D02*
X184553571Y64322381D01*
X184648809Y65417620D02*
X185220238Y65417620D01*
X184934523Y64417620D02*
X184934523Y65417620D01*
X185934523Y64465239D02*
X185839285Y64417620D01*
X185648809Y64417620D01*
X185553571Y64465239D01*
X185505952Y64560477D01*
X185505952Y64941429D01*
X185553571Y65036667D01*
X185648809Y65084286D01*
X185839285Y65084286D01*
X185934523Y65036667D01*
X185982142Y64941429D01*
X185982142Y64846191D01*
X185505952Y64750953D01*
X186363095Y64465239D02*
X186458333Y64417620D01*
X186648809Y64417620D01*
X186744047Y64465239D01*
X186791666Y64560477D01*
X186791666Y64608096D01*
X186744047Y64703334D01*
X186648809Y64750953D01*
X186505952Y64750953D01*
X186410714Y64798572D01*
X186363095Y64893810D01*
X186363095Y64941429D01*
X186410714Y65036667D01*
X186505952Y65084286D01*
X186648809Y65084286D01*
X186744047Y65036667D01*
X187077380Y65084286D02*
X187458333Y65084286D01*
X187220238Y65417620D02*
X187220238Y64560477D01*
X187267857Y64465239D01*
X187363095Y64417620D01*
X187458333Y64417620D01*
X187791666Y64417620D02*
X187791666Y65417620D01*
X188172619Y65417620D01*
X188267857Y65370000D01*
X188315476Y65322381D01*
X188363095Y65227143D01*
X188363095Y65084286D01*
X188315476Y64989048D01*
X188267857Y64941429D01*
X188172619Y64893810D01*
X187791666Y64893810D01*
X188934523Y64417620D02*
X188839285Y64465239D01*
X188791666Y64512858D01*
X188744047Y64608096D01*
X188744047Y64893810D01*
X188791666Y64989048D01*
X188839285Y65036667D01*
X188934523Y65084286D01*
X189077380Y65084286D01*
X189172619Y65036667D01*
X189220238Y64989048D01*
X189267857Y64893810D01*
X189267857Y64608096D01*
X189220238Y64512858D01*
X189172619Y64465239D01*
X189077380Y64417620D01*
X188934523Y64417620D01*
X189696428Y64417620D02*
X189696428Y65084286D01*
X189696428Y65417620D02*
X189648809Y65370000D01*
X189696428Y65322381D01*
X189744047Y65370000D01*
X189696428Y65417620D01*
X189696428Y65322381D01*
X190172619Y65084286D02*
X190172619Y64417620D01*
X190172619Y64989048D02*
X190220238Y65036667D01*
X190315476Y65084286D01*
X190458333Y65084286D01*
X190553571Y65036667D01*
X190601190Y64941429D01*
X190601190Y64417620D01*
X190934523Y65084286D02*
X191315476Y65084286D01*
X191077380Y65417620D02*
X191077380Y64560477D01*
X191125000Y64465239D01*
X191220238Y64417620D01*
X191315476Y64417620D01*
X183244047Y67417620D02*
X182910714Y67893810D01*
X182672619Y67417620D02*
X182672619Y68417620D01*
X183053571Y68417620D01*
X183148809Y68370000D01*
X183196428Y68322381D01*
X183244047Y68227143D01*
X183244047Y68084286D01*
X183196428Y67989048D01*
X183148809Y67941429D01*
X183053571Y67893810D01*
X182672619Y67893810D01*
X183863095Y68417620D02*
X184053571Y68417620D01*
X184148809Y68370000D01*
X184244047Y68274762D01*
X184291666Y68084286D01*
X184291666Y67750953D01*
X184244047Y67560477D01*
X184148809Y67465239D01*
X184053571Y67417620D01*
X183863095Y67417620D01*
X183767857Y67465239D01*
X183672619Y67560477D01*
X183625000Y67750953D01*
X183625000Y68084286D01*
X183672619Y68274762D01*
X183767857Y68370000D01*
X183863095Y68417620D01*
X184625000Y68417620D02*
X184863095Y67417620D01*
X185053571Y68131905D01*
X185244047Y67417620D01*
X185482142Y68417620D01*
X185625000Y67322381D02*
X186386904Y67322381D01*
X186767857Y67989048D02*
X186672619Y68036667D01*
X186625000Y68084286D01*
X186577380Y68179524D01*
X186577380Y68227143D01*
X186625000Y68322381D01*
X186672619Y68370000D01*
X186767857Y68417620D01*
X186958333Y68417620D01*
X187053571Y68370000D01*
X187101190Y68322381D01*
X187148809Y68227143D01*
X187148809Y68179524D01*
X187101190Y68084286D01*
X187053571Y68036667D01*
X186958333Y67989048D01*
X186767857Y67989048D01*
X186672619Y67941429D01*
X186625000Y67893810D01*
X186577380Y67798572D01*
X186577380Y67608096D01*
X186625000Y67512858D01*
X186672619Y67465239D01*
X186767857Y67417620D01*
X186958333Y67417620D01*
X187053571Y67465239D01*
X187101190Y67512858D01*
X187148809Y67608096D01*
X187148809Y67798572D01*
X187101190Y67893810D01*
X187053571Y67941429D01*
X186958333Y67989048D01*
X187339285Y67322381D02*
X188101190Y67322381D01*
X188196428Y68417620D02*
X188767857Y68417620D01*
X188482142Y67417620D02*
X188482142Y68417620D01*
X189101190Y67417620D02*
X189101190Y68417620D01*
X189482142Y68417620D01*
X189577380Y68370000D01*
X189625000Y68322381D01*
X189672619Y68227143D01*
X189672619Y68084286D01*
X189625000Y67989048D01*
X189577380Y67941429D01*
X189482142Y67893810D01*
X189101190Y67893810D01*
X190244047Y67989048D02*
X190148809Y68036667D01*
X190101190Y68084286D01*
X190053571Y68179524D01*
X190053571Y68227143D01*
X190101190Y68322381D01*
X190148809Y68370000D01*
X190244047Y68417620D01*
X190434523Y68417620D01*
X190529761Y68370000D01*
X190577380Y68322381D01*
X190625000Y68227143D01*
X190625000Y68179524D01*
X190577380Y68084286D01*
X190529761Y68036667D01*
X190434523Y67989048D01*
X190244047Y67989048D01*
X190148809Y67941429D01*
X190101190Y67893810D01*
X190053571Y67798572D01*
X190053571Y67608096D01*
X190101190Y67512858D01*
X190148809Y67465239D01*
X190244047Y67417620D01*
X190434523Y67417620D01*
X190529761Y67465239D01*
X190577380Y67512858D01*
X190625000Y67608096D01*
X190625000Y67798572D01*
X190577380Y67893810D01*
X190529761Y67941429D01*
X190434523Y67989048D01*
D13*
%TO.C,J1*%
X163595000Y83250000D02*
X46850000Y83250000D01*
X46215000Y85790000D02*
X163595000Y85790000D01*
X46850000Y83250000D02*
X46215000Y83885000D01*
X163595000Y85790000D02*
X163595000Y83250000D01*
X46215000Y83885000D02*
X46215000Y85790000D01*
%TD*%
M02*
