%TF.GenerationSoftware,KiCad,Pcbnew,(5.99.0-12974-ge12f9a194d)*%
%TF.CreationDate,2021-10-29T16:05:09-04:00*%
%TF.ProjectId,FXTal_no_holes,46585461-6c5f-46e6-9f5f-686f6c65732e,rev?*%
%TF.SameCoordinates,PXe1237f8PYe7db780*%
%TF.FileFunction,Soldermask,Bot*%
%TF.FilePolarity,Negative*%
%FSLAX46Y46*%
G04 Gerber Fmt 4.6, Leading zero omitted, Abs format (unit mm)*
G04 Created by KiCad (PCBNEW (5.99.0-12974-ge12f9a194d)) date 2021-10-29 16:05:09*
%MOMM*%
%LPD*%
G01*
G04 APERTURE LIST*
%TA.AperFunction,Profile*%
%ADD10C,0.050000*%
%TD*%
%ADD11R,1.700000X1.700000*%
%ADD12O,1.700000X1.700000*%
%ADD13C,1.000000*%
G04 APERTURE END LIST*
D10*
X-191375000Y84870000D02*
X21625000Y84870000D01*
X-194375000Y-35130000D02*
X-194362680Y82141607D01*
X221575000Y-38130000D02*
X-191375000Y-38130000D01*
X224575000Y81870000D02*
X224575000Y-35130000D01*
X221575000Y84870000D02*
X183625000Y84870000D01*
X-135875000Y13920000D02*
G75*
G03*
X-137524996Y15570000I-1649999J1D01*
G01*
X-191375000Y84870000D02*
G75*
G03*
X-194362680Y82141607I1J-3000002D01*
G01*
X21625000Y89370000D02*
X183625000Y89370000D01*
X21625000Y84870000D02*
X21625000Y89370000D01*
X-137525000Y12270004D02*
X-139475001Y12270000D01*
X183625000Y89370000D02*
X183625000Y84870000D01*
X-137525000Y12270004D02*
G75*
G03*
X-135875000Y13920000I4J1649996D01*
G01*
X221575000Y-38130000D02*
G75*
G03*
X224575000Y-35130000I-1J3000001D01*
G01*
X-194375000Y-35130000D02*
G75*
G03*
X-191375000Y-38130000I3000001J1D01*
G01*
X224575000Y81870000D02*
G75*
G03*
X221575000Y84870000I-3000001J-1D01*
G01*
X-139475001Y15570000D02*
X-137524996Y15570000D01*
X-139475001Y15570000D02*
G75*
G03*
X-139475001Y12270000I-3149999J-1650000D01*
G01*
D11*
%TO.C,J1*%
X47485000Y84520000D03*
D12*
X51445000Y84520000D03*
X55405000Y84520000D03*
X59365000Y84520000D03*
X63325000Y84520000D03*
X67285000Y84520000D03*
X71245000Y84520000D03*
X75205000Y84520000D03*
X79165000Y84520000D03*
X83125000Y84520000D03*
X87085000Y84520000D03*
X91045000Y84520000D03*
X95005000Y84520000D03*
X98965000Y84520000D03*
X102925000Y84520000D03*
X106885000Y84520000D03*
X110845000Y84520000D03*
X114805000Y84520000D03*
X118765000Y84520000D03*
X122725000Y84520000D03*
X126685000Y84520000D03*
X130645000Y84520000D03*
X134605000Y84520000D03*
X138565000Y84520000D03*
X142525000Y84520000D03*
X146485000Y84520000D03*
X150445000Y84520000D03*
X154405000Y84520000D03*
X158365000Y84520000D03*
X162325000Y84520000D03*
%TD*%
D13*
%TO.C,COL_7_TP15*%
X36213000Y-35772000D03*
%TD*%
%TO.C,COL_9_TP17*%
X109111000Y-36788000D03*
%TD*%
%TO.C,COL_8_TP16*%
X76825000Y-36780000D03*
%TD*%
%TO.C,COL_4_TP12*%
X-71229000Y-35772000D03*
%TD*%
%TO.C,COL_1_TP9*%
X-173083000Y-36280000D03*
%TD*%
%TO.C,COL_B_TP19*%
X173627000Y-36788000D03*
%TD*%
%TO.C,COL_6_TP14*%
X-1025000Y-36180000D03*
%TD*%
%TO.C,COL_A_TP18*%
X145941000Y-36026000D03*
%TD*%
%TO.C,COL_3_TP11*%
X-95105000Y-35772000D03*
%TD*%
%TO.C,COL_C_TP20*%
X203345000Y-36026000D03*
%TD*%
%TO.C,COL_2_TP10*%
X-153779000Y-36026000D03*
%TD*%
%TO.C,COL_5_TP13*%
X-27725000Y-36026000D03*
%TD*%
M02*
