M48
; DRILL file {KiCad (6.99.0-2452-gdb4f2d9dd8)} date Monday, July 18, 2022 at 07:05:11 PM
; FORMAT={-:-/ absolute / inch / decimal}
; #@! TF.CreationDate,2022-07-18T19:05:11+02:00
; #@! TF.GenerationSoftware,Kicad,Pcbnew,(6.99.0-2452-gdb4f2d9dd8)
; #@! TF.FileFunction,Plated,1,2,PTH
FMAT,2
INCH
; #@! TA.AperFunction,Plated,PTH,ViaDrill
T1C0.0157
; #@! TA.AperFunction,Plated,PTH,ComponentDrill
T2C0.0519
%
G90
G05
T1
X1.95Y-7.8252
X1.95Y-8.0374
T2
X11.1683Y-5.2748
X11.3243Y-5.2748
X11.4802Y-5.2748
X11.6361Y-5.2748
X11.792Y-5.2748
X11.9479Y-5.2748
X12.1038Y-5.2748
X12.2597Y-5.2748
X12.4156Y-5.2748
X12.5715Y-5.2748
X12.7274Y-5.2748
X12.8833Y-5.2748
X13.0392Y-5.2748
X13.1951Y-5.2748
X13.351Y-5.2748
X13.5069Y-5.2748
X13.6628Y-5.2748
X13.8187Y-5.2748
X13.9746Y-5.2748
X14.1306Y-5.2748
X14.2865Y-5.2748
X14.4424Y-5.2748
X14.5983Y-5.2748
X14.7542Y-5.2748
X14.9101Y-5.2748
X15.066Y-5.2748
X15.2219Y-5.2748
X15.3778Y-5.2748
X15.5337Y-5.2748
X15.6896Y-5.2748
T0
M30
