%TF.GenerationSoftware,KiCad,Pcbnew,(6.99.0-2452-gdb4f2d9dd8)*%
%TF.CreationDate,2022-07-18T19:05:11+02:00*%
%TF.ProjectId,FXTal_rev1,46585461-6c5f-4726-9576-312e6b696361,rev?*%
%TF.SameCoordinates,PXe1237f8PYe7db780*%
%TF.FileFunction,Soldermask,Top*%
%TF.FilePolarity,Negative*%
%FSLAX46Y46*%
G04 Gerber Fmt 4.6, Leading zero omitted, Abs format (unit mm)*
G04 Created by KiCad (PCBNEW (6.99.0-2452-gdb4f2d9dd8)) date 2022-07-18 19:05:11*
%MOMM*%
%LPD*%
G01*
G04 APERTURE LIST*
%ADD10O,1.700000X1.700000*%
%ADD11R,1.700000X1.700000*%
%ADD12C,1.000000*%
%ADD13C,0.800000*%
G04 APERTURE END LIST*
D10*
%TO.C,J1*%
X398515999Y-133978999D03*
X394555999Y-133978999D03*
X390595999Y-133978999D03*
X386635999Y-133978999D03*
X382675999Y-133978999D03*
X378715999Y-133978999D03*
X374755999Y-133978999D03*
X370795999Y-133978999D03*
X366835999Y-133978999D03*
X362875999Y-133978999D03*
X358915999Y-133978999D03*
X354955999Y-133978999D03*
X350995999Y-133978999D03*
X347035999Y-133978999D03*
X343075999Y-133978999D03*
X339115999Y-133978999D03*
X335155999Y-133978999D03*
X331195999Y-133978999D03*
X327235999Y-133978999D03*
X323275999Y-133978999D03*
X319315999Y-133978999D03*
X315355999Y-133978999D03*
X311395999Y-133978999D03*
X307435999Y-133978999D03*
X303475999Y-133978999D03*
X299515999Y-133978999D03*
X295555999Y-133978999D03*
X291595999Y-133978999D03*
X287635999Y-133978999D03*
D11*
X283675999Y-133978999D03*
%TD*%
D12*
%TO.C,ROW_1_TP1*%
X456808000Y-269119000D03*
%TD*%
%TO.C,ROW_2_TP2*%
X456300000Y-248037000D03*
%TD*%
%TO.C,ROW_3_TP3*%
X456300000Y-226955000D03*
%TD*%
%TO.C,ROW_4_TP4*%
X422264000Y-235083000D03*
%TD*%
%TO.C,ROW_5_TP5*%
X455792000Y-206127000D03*
%TD*%
%TO.C,ROW_6_TP6*%
X422516000Y-196979000D03*
%TD*%
%TO.C,ROW_7_TP7*%
X458078000Y-185045000D03*
%TD*%
%TO.C,ROW_8_TP8*%
X422816000Y-176579000D03*
%TD*%
D13*
X49530000Y-198760000D03*
X49530000Y-204150000D03*
M02*
