%TF.GenerationSoftware,KiCad,Pcbnew,(6.99.0-3429-gce3fe46751)*%
%TF.CreationDate,2022-10-17T19:36:07+02:00*%
%TF.ProjectId,FXTal_rev1,46585461-6c5f-4726-9576-312e6b696361,rev?*%
%TF.SameCoordinates,PXe1237f8PYe7db780*%
%TF.FileFunction,Profile,NP*%
%FSLAX46Y46*%
G04 Gerber Fmt 4.6, Leading zero omitted, Abs format (unit mm)*
G04 Created by KiCad (PCBNEW (6.99.0-3429-gce3fe46751)) date 2022-10-17 19:36:07*
%MOMM*%
%LPD*%
G01*
G04 APERTURE LIST*
%TA.AperFunction,Profile*%
%ADD10C,0.050000*%
%TD*%
G04 APERTURE END LIST*
D10*
X221691000Y-38009000D02*
X-191259000Y-38009000D01*
X224691000Y81991000D02*
X224691000Y-35009000D01*
X-135759000Y14041000D02*
G75*
G03*
X-137408996Y15691000I-1650000J0D01*
G01*
X99041000Y84991000D02*
X99041000Y90751000D01*
X173221000Y112031000D02*
G75*
G03*
X173021000Y112231000I-200000J0D01*
G01*
X-191259000Y84991000D02*
G75*
G03*
X-194246680Y82262607I0J-3000000D01*
G01*
X-137409000Y12391004D02*
X-139359001Y12391000D01*
X-194246680Y82262607D02*
X-194259000Y-35009000D01*
X-137409000Y12391000D02*
G75*
G03*
X-135759000Y14041000I0J1650000D01*
G01*
X-191259000Y84991000D02*
X37241000Y84990502D01*
X221691000Y-38009000D02*
G75*
G03*
X224691000Y-35009000I0J3000000D01*
G01*
X111841000Y84991000D02*
X99041000Y84991000D01*
X111841000Y84991000D02*
X111841000Y90751000D01*
X99041000Y90751000D02*
X111841000Y90751000D01*
X173221000Y112031000D02*
X173221000Y85091000D01*
X173021000Y112231000D02*
X37541000Y112231000D01*
X37341000Y112031000D02*
X37340999Y85101000D01*
X-194259000Y-35009000D02*
G75*
G03*
X-191259000Y-38009000I3000000J0D01*
G01*
X37241000Y84990503D02*
G75*
G03*
X37340998Y85101000I0J100497D01*
G01*
X173221000Y85091000D02*
G75*
G03*
X173321000Y84991000I100000J0D01*
G01*
X37541000Y112231000D02*
G75*
G03*
X37341000Y112031000I0J-200000D01*
G01*
X173321000Y84991000D02*
X221691000Y84991000D01*
X224691000Y81991000D02*
G75*
G03*
X221691000Y84991000I-3000000J0D01*
G01*
X-139359001Y15691000D02*
X-137408996Y15691000D01*
X-139359002Y15691000D02*
G75*
G03*
X-139359002Y12391000I-3149998J-1650000D01*
G01*
M02*
