%TF.GenerationSoftware,KiCad,Pcbnew,(6.99.0-3429-gce3fe46751)*%
%TF.CreationDate,2022-10-17T19:36:07+02:00*%
%TF.ProjectId,FXTal_rev1,46585461-6c5f-4726-9576-312e6b696361,rev?*%
%TF.SameCoordinates,PXe1237f8PYe7db780*%
%TF.FileFunction,Soldermask,Bot*%
%TF.FilePolarity,Negative*%
%FSLAX46Y46*%
G04 Gerber Fmt 4.6, Leading zero omitted, Abs format (unit mm)*
G04 Created by KiCad (PCBNEW (6.99.0-3429-gce3fe46751)) date 2022-10-17 19:36:07*
%MOMM*%
%LPD*%
G01*
G04 APERTURE LIST*
%ADD10R,1.700000X1.700000*%
%ADD11O,1.700000X1.700000*%
%ADD12C,1.000000*%
G04 APERTURE END LIST*
D10*
%TO.C,J1*%
X47600999Y109140999D03*
D11*
X51560999Y109140999D03*
X55520999Y109140999D03*
X59480999Y109140999D03*
X63440999Y109140999D03*
X67400999Y109140999D03*
X71360999Y109140999D03*
X75320999Y109140999D03*
X79280999Y109140999D03*
X83240999Y109140999D03*
X87200999Y109140999D03*
X91160999Y109140999D03*
X95120999Y109140999D03*
X99080999Y109140999D03*
X103040999Y109140999D03*
X107000999Y109140999D03*
X110960999Y109140999D03*
X114920999Y109140999D03*
X118880999Y109140999D03*
X122840999Y109140999D03*
X126800999Y109140999D03*
X130760999Y109140999D03*
X134720999Y109140999D03*
X138680999Y109140999D03*
X142640999Y109140999D03*
X146600999Y109140999D03*
X150560999Y109140999D03*
X154520999Y109140999D03*
X158480999Y109140999D03*
X162440999Y109140999D03*
%TD*%
D12*
%TO.C,COL_7_TP15*%
X36329000Y-35651000D03*
%TD*%
%TO.C,COL_9_TP17*%
X109227000Y-36667000D03*
%TD*%
%TO.C,COL_8_TP16*%
X76941000Y-36659000D03*
%TD*%
%TO.C,COL_4_TP12*%
X-71113000Y-35651000D03*
%TD*%
%TO.C,COL_1_TP9*%
X-172967000Y-36159000D03*
%TD*%
%TO.C,COL_B_TP19*%
X173743000Y-36667000D03*
%TD*%
%TO.C,COL_6_TP14*%
X-909000Y-36059000D03*
%TD*%
%TO.C,COL_A_TP18*%
X146057000Y-35905000D03*
%TD*%
%TO.C,COL_3_TP11*%
X-94989000Y-35651000D03*
%TD*%
%TO.C,COL_C_TP20*%
X203461000Y-35905000D03*
%TD*%
%TO.C,COL_2_TP10*%
X-153663000Y-35905000D03*
%TD*%
%TO.C,COL_5_TP13*%
X-27609000Y-35905000D03*
%TD*%
M02*
