%TF.GenerationSoftware,KiCad,Pcbnew,(6.99.0-2452-gdb4f2d9dd8)*%
%TF.CreationDate,2022-07-18T19:05:11+02:00*%
%TF.ProjectId,FXTal_rev1,46585461-6c5f-4726-9576-312e6b696361,rev?*%
%TF.SameCoordinates,PXe1237f8PYe7db780*%
%TF.FileFunction,Profile,NP*%
%FSLAX46Y46*%
G04 Gerber Fmt 4.6, Leading zero omitted, Abs format (unit mm)*
G04 Created by KiCad (PCBNEW (6.99.0-2452-gdb4f2d9dd8)) date 2022-07-18 19:05:11*
%MOMM*%
%LPD*%
G01*
G04 APERTURE LIST*
%TA.AperFunction,Profile*%
%ADD10C,0.050000*%
%TD*%
G04 APERTURE END LIST*
D10*
X457766000Y-281129000D02*
X44816000Y-281129000D01*
X460766000Y-161129000D02*
X460766000Y-278129000D01*
X100316000Y-229079000D02*
G75*
G03*
X98666004Y-227429000I-1650000J0D01*
G01*
X335116000Y-158129000D02*
X335116000Y-152369000D01*
X409296000Y-131089000D02*
G75*
G03*
X409096000Y-130889000I-200000J0D01*
G01*
X44816000Y-158129000D02*
G75*
G03*
X41828320Y-160857393I0J-3000000D01*
G01*
X98666000Y-230728996D02*
X96715999Y-230729000D01*
X41828320Y-160857393D02*
X41816000Y-278129000D01*
X98666000Y-230729000D02*
G75*
G03*
X100316000Y-229079000I0J1650000D01*
G01*
X44816000Y-158129000D02*
X273316000Y-158129498D01*
X457766000Y-281129000D02*
G75*
G03*
X460766000Y-278129000I0J3000000D01*
G01*
X347916000Y-158129000D02*
X335116000Y-158129000D01*
X347916000Y-158129000D02*
X347916000Y-152369000D01*
X335116000Y-152369000D02*
X347916000Y-152369000D01*
X409296000Y-131089000D02*
X409296000Y-158029000D01*
X409096000Y-130889000D02*
X273616000Y-130889000D01*
X273416000Y-131089000D02*
X273415999Y-158019000D01*
X41816000Y-278129000D02*
G75*
G03*
X44816000Y-281129000I3000000J0D01*
G01*
X273316000Y-158129497D02*
G75*
G03*
X273415998Y-158019000I0J100497D01*
G01*
X409296000Y-158029000D02*
G75*
G03*
X409396000Y-158129000I100000J0D01*
G01*
X273616000Y-130889000D02*
G75*
G03*
X273416000Y-131089000I0J-200000D01*
G01*
X409396000Y-158129000D02*
X457766000Y-158129000D01*
X460766000Y-161129000D02*
G75*
G03*
X457766000Y-158129000I-3000000J0D01*
G01*
X96715999Y-227429000D02*
X98666004Y-227429000D01*
X96715998Y-227429000D02*
G75*
G03*
X96715998Y-230729000I-3149998J-1650000D01*
G01*
M02*
